<svg xmlns="http://www.w3.org/2000/svg" viewBox="0 0 646.49 362.48"><defs><style>.cls-1{fill:#ebebeb;}.cls-2{fill:#fafafa;}.cls-3{fill:#e0e0e0;}.cls-4,.cls-7{fill:#f5f5f5;}.cls-4{stroke:#263238;stroke-width:0.5px;}.cls-30,.cls-4,.cls-9{stroke-miterlimit:10;}.cls-30,.cls-5{fill:#6a9f83;}.cls-11,.cls-6{fill:#fff;}.cls-8{fill:#263238;}.cls-9{fill:none;stroke:#dedede;}.cls-10{font-size:4.61px;font-family:Roboto-Regular, Roboto;}.cls-11,.cls-12{font-size:12px;font-family:Roboto-Bold, Roboto;font-weight:700;}.cls-13{letter-spacing:-0.02em;}.cls-14{letter-spacing:-0.01em;}.cls-15{font-size:10.48px;font-family:Roboto-Medium, Roboto;font-weight:500;}.cls-16{letter-spacing:-0.01em;}.cls-17{fill:#b2aeb4;}.cls-17,.cls-18,.cls-19,.cls-20,.cls-21,.cls-22{fill-rule:evenodd;}.cls-18{fill:#eae8ea;}.cls-19{fill:#009276;}.cls-20{fill:#dbdbdb;}.cls-21{fill:#d7d6d9;}.cls-22{fill:#c9c9c9;}.cls-23{fill:#6c6570;}.cls-24{fill:#ffbe9d;}.cls-25{fill:#eb996e;}.cls-26{fill:#d1734a;}.cls-27{fill:#455a64;}.cls-28{fill:#a36957;}.cls-29{fill:#7c3b29;}.cls-30{stroke:#6a9f83;}.cls-31{fill:#074286;}.cls-32{opacity:0.3;}</style></defs><g id="Camada_2" data-name="Camada 2"><g id="Background_Complete" data-name="Background Complete"><polygon class="cls-1" points="548.31 330.26 553.16 362.13 581.34 362.13 587.88 330.72 548.31 330.26"/><path class="cls-2" d="M583.94,350.69c0,.09-7.22.16-16.13.16s-16.12-.07-16.12-.16,7.22-.17,16.12-.17S583.94,350.6,583.94,350.69Z"/><path class="cls-2" d="M584.05,349.12c0,.09-7.27.17-16.24.17s-16.23-.08-16.23-.17,7.27-.17,16.23-.17S584.05,349,584.05,349.12Z"/><path class="cls-2" d="M584,347.35c0,.09-7.27.16-16.23.16s-16.24-.07-16.24-.16,7.27-.17,16.24-.17S584,347.26,584,347.35Z"/><path class="cls-2" d="M556.4,360.32a26,26,0,0,1-.87-4,26.68,26.68,0,0,1-.54-4.07,25.66,25.66,0,0,1,.87,4A25.25,25.25,0,0,1,556.4,360.32Z"/><path class="cls-2" d="M558.31,360a90.92,90.92,0,0,1-.53-7.85,18.57,18.57,0,0,1,.51,3.91A18.8,18.8,0,0,1,558.31,360Z"/><path class="cls-2" d="M561.81,360a20.14,20.14,0,0,1-.74-4,19.72,19.72,0,0,1-.21-4.08,126.54,126.54,0,0,1,.95,8.1Z"/><path class="cls-2" d="M564.26,360.14a19.63,19.63,0,0,1-.39-4.08A20,20,0,0,1,564,352a35.5,35.5,0,0,1,.2,4.08A36.44,36.44,0,0,1,564.26,360.14Z"/><path class="cls-2" d="M568.6,360a23.22,23.22,0,0,1-.29-3.87,22.45,22.45,0,0,1,0-3.89,23.82,23.82,0,0,1,.3,3.87A23.06,23.06,0,0,1,568.6,360Z"/><path class="cls-2" d="M571.77,360.14a24.41,24.41,0,0,1-.13-4,24.65,24.65,0,0,1,.2-4,24.41,24.41,0,0,1,.13,4A23.26,23.26,0,0,1,571.77,360.14Z"/><path class="cls-2" d="M574.75,359.72a52.9,52.9,0,0,1,.81-8.34,27.25,27.25,0,0,1-.24,4.18A27.68,27.68,0,0,1,574.75,359.72Z"/><path class="cls-2" d="M578.58,359.3a13.91,13.91,0,0,1,.48-3.56,14.46,14.46,0,0,1,1-3.43,30.77,30.77,0,0,1-.72,3.5A31.78,31.78,0,0,1,578.58,359.3Z"/><path class="cls-1" d="M575.87,267.36a1.45,1.45,0,0,1,0,.16c0,.12-.08.27-.13.45-.13.42-.31,1-.53,1.72s-.53,1.65-.83,2.73-.68,2.27-1,3.63-.74,2.83-1.1,4.44-.72,3.32-1.08,5.13c-.68,3.64-1.29,7.65-1.73,11.9s-.6,8.31-.66,12c0,1.85,0,3.61,0,5.25s.12,3.17.2,4.57.19,2.65.28,3.76.18,2.06.27,2.84.14,1.35.19,1.79c0,.19,0,.34,0,.47s0,.16,0,.16,0-.05,0-.16,0-.27-.07-.46c-.06-.44-.14-1-.25-1.79s-.23-1.72-.32-2.83-.26-2.37-.33-3.77-.2-2.93-.24-4.57-.07-3.41-.08-5.26c0-3.71.22-7.78.63-12s1.06-8.28,1.76-11.92c.37-1.81.71-3.54,1.12-5.13s.76-3.09,1.14-4.44.74-2.56,1.06-3.63.62-2,.88-2.71.45-1.29.6-1.7c.06-.18.12-.33.16-.44S575.86,267.36,575.87,267.36Z"/><path class="cls-1" d="M570.78,287.1a10.5,10.5,0,0,1,4.38-5.54,2.51,2.51,0,0,1,2.32-.42c1,.47,1.06,1.86.77,2.91a7.73,7.73,0,0,1-3.19,4.35,6.5,6.5,0,0,1-4.79,1.2"/><path class="cls-1" d="M569.07,300.43c.73-2.76,2.92-6.67,5.2-8.37a3.46,3.46,0,0,1,1.18-.63,1.38,1.38,0,0,1,1.27.27,2,2,0,0,1,.28,1.83,11.1,11.1,0,0,1-8.22,8.28"/><path class="cls-1" d="M568.6,312.16a16,16,0,0,1,5.25-6.6,2.46,2.46,0,0,1,1.83-.65c1,.18,1.44,1.39,1.36,2.4-.19,2.08-1.77,3.74-3.41,5a20.9,20.9,0,0,1-4.85,2.49"/><path class="cls-1" d="M568.86,320.59a15.49,15.49,0,0,1,4.47-5.08,3.12,3.12,0,0,1,1.34-.6,1.35,1.35,0,0,1,1.31.5c.45.65,0,1.54-.46,2.18a12.7,12.7,0,0,1-6.37,4.67"/><path class="cls-1" d="M568.64,317.17a49.68,49.68,0,0,0-6.38-6.51c-.37-.31-.82-.63-1.28-.48a.93.93,0,0,0-.58.86,2.34,2.34,0,0,0,.24,1.06,12.39,12.39,0,0,0,8.22,6.92"/><path class="cls-1" d="M568.85,306.19l-5-6.11a6,6,0,0,0-1.63-1.55,2,2,0,0,0-2.14,0,2,2,0,0,0-.68,2,5.29,5.29,0,0,0,1,2,15.07,15.07,0,0,0,3.66,3.89,6.12,6.12,0,0,0,4.58,1.41"/><path class="cls-1" d="M569.54,293.83a17.44,17.44,0,0,0-5-7.57,3,3,0,0,0-1.32-.77,2.2,2.2,0,0,0-2.3,1.62,4.11,4.11,0,0,0,.46,3.32,8.74,8.74,0,0,0,2.36,2.49,20,20,0,0,0,5.57,3"/><path class="cls-1" d="M571.55,282.82c-.49-3.55-2.33-6.5-4.47-9.37-.45-.6-1.08-1.24-1.83-1.13a1.43,1.43,0,0,0-1,.9,3.25,3.25,0,0,0-.2,1.42,10.94,10.94,0,0,0,7.1,9.78"/><path class="cls-1" d="M573,277.19a29.55,29.55,0,0,1-.18-5.48,9.78,9.78,0,0,1,1.82-5.1,4.17,4.17,0,0,1,1.82-1.46,2.28,2.28,0,0,1,2.23.3,2.44,2.44,0,0,1,.77,2,6.32,6.32,0,0,1-.57,2.1c-1.33,3.21-3.56,6.77-5.89,7.67"/><path class="cls-3" d="M551.1,281.42a2.56,2.56,0,0,1,0,.45c0,.32,0,.75,0,1.28s0,1.24,0,2,0,1.69.1,2.69c.09,2,.28,4.36.58,7s.77,5.49,1.39,8.47,1.38,5.78,2.13,8.31,1.55,4.77,2.27,6.63c.34.94.7,1.77,1,2.5s.56,1.37.79,1.88.37.88.5,1.18a2.18,2.18,0,0,1,.15.43,3.61,3.61,0,0,1-.21-.4l-.56-1.16c-.25-.5-.54-1.12-.84-1.85s-.69-1.56-1-2.5c-.75-1.85-1.56-4.1-2.35-6.62s-1.53-5.35-2.16-8.33-1.06-5.87-1.37-8.5-.46-5-.51-7c0-1,0-1.91,0-2.7s0-1.48,0-2,0-1,0-1.29A1.89,1.89,0,0,1,551.1,281.42Z"/><path class="cls-3" d="M551.88,296a7.47,7.47,0,0,1,1.8-4.71,1.77,1.77,0,0,1,1.48-.79c.77.11,1.13,1,1.15,1.82a5.47,5.47,0,0,1-1.23,3.64,4.69,4.69,0,0,1-3,1.85"/><path class="cls-3" d="M553.59,305.39a12.51,12.51,0,0,1,1.74-6.81,2.45,2.45,0,0,1,.67-.69,1,1,0,0,1,.92-.08,1.37,1.37,0,0,1,.58,1.18,7.9,7.9,0,0,1-3.81,7.4"/><path class="cls-3" d="M555.79,313.48a11.48,11.48,0,0,1,2.15-5.62,1.81,1.81,0,0,1,1.11-.84c.72-.09,1.29.64,1.44,1.34a5.5,5.5,0,0,1-1.23,4.16,15.12,15.12,0,0,1-2.77,2.74"/><path class="cls-3" d="M557.79,319.17a11.1,11.1,0,0,1,1.94-4.43,2.38,2.38,0,0,1,.79-.69,1,1,0,0,1,1,.05c.45.35.35,1,.16,1.59a9.09,9.09,0,0,1-3.34,4.55"/><path class="cls-3" d="M556.9,316.88a35.54,35.54,0,0,0-5.75-3.05,1,1,0,0,0-1-.06.7.7,0,0,0-.21.71,1.78,1.78,0,0,0,.39.68,8.9,8.9,0,0,0,7.09,2.94"/><path class="cls-3" d="M554.68,309.36,550,306.28a4.52,4.52,0,0,0-1.45-.7,1.3,1.3,0,0,0-1.49,2,3.76,3.76,0,0,0,1.1,1.15,10.57,10.57,0,0,0,3.32,1.86,4.36,4.36,0,0,0,3.42,0"/><path class="cls-3" d="M552.49,300.8a12.52,12.52,0,0,0-5.07-4.07,2.06,2.06,0,0,0-1.06-.24,1.59,1.59,0,0,0-1.22,1.6,3,3,0,0,0,1,2.16,6.43,6.43,0,0,0,2.14,1.19,14.74,14.74,0,0,0,4.45.85"/><path class="cls-3" d="M551.48,292.87a14.55,14.55,0,0,0-5.05-5.41,1.53,1.53,0,0,0-1.49-.38,1,1,0,0,0-.52.84,2.45,2.45,0,0,0,.17,1,7.8,7.8,0,0,0,6.94,5.13"/><path class="cls-3" d="M551.23,288.74a20.58,20.58,0,0,1-1.3-3.7,6.94,6.94,0,0,1,.14-3.86,3,3,0,0,1,.92-1.38,1.62,1.62,0,0,1,1.59-.28,1.74,1.74,0,0,1,.94,1.17,4.49,4.49,0,0,1,.07,1.55c-.22,2.48-1,5.38-2.36,6.5"/><path class="cls-1" d="M586.73,281.11a3,3,0,0,1,0,.44c0,.33,0,.76,0,1.29s0,1.25,0,2,0,1.7-.05,2.7c-.06,2-.23,4.38-.51,7s-.75,5.51-1.37,8.5-1.39,5.8-2.16,8.33-1.6,4.77-2.35,6.63c-.35.93-.73,1.76-1,2.49s-.6,1.35-.84,1.85l-.56,1.16a2.14,2.14,0,0,1-.22.4,3,3,0,0,1,.16-.43l.5-1.18c.23-.51.5-1.14.79-1.88s.65-1.56,1-2.5c.72-1.86,1.5-4.11,2.28-6.63S584,306,584.59,303s1.06-5.85,1.38-8.47.5-5,.59-7c.06-1,.07-1.9.09-2.69s0-1.48,0-2,0-1,0-1.28A2.56,2.56,0,0,1,586.73,281.11Z"/><path class="cls-1" d="M585.94,295.64a7.49,7.49,0,0,0-1.79-4.71,1.82,1.82,0,0,0-1.49-.79c-.77.11-1.12,1-1.15,1.82a5.53,5.53,0,0,0,1.24,3.64,4.6,4.6,0,0,0,3,1.85"/><path class="cls-1" d="M584.24,305.08a12.59,12.59,0,0,0-1.74-6.81,2.59,2.59,0,0,0-.67-.69,1,1,0,0,0-.92-.08,1.4,1.4,0,0,0-.59,1.18,7.93,7.93,0,0,0,3.82,7.41"/><path class="cls-1" d="M582,313.17a11.48,11.48,0,0,0-2.15-5.62,1.76,1.76,0,0,0-1.1-.84c-.72-.09-1.29.64-1.45,1.34a5.55,5.55,0,0,0,1.24,4.16,15.12,15.12,0,0,0,2.77,2.74"/><path class="cls-1" d="M580,318.86a11,11,0,0,0-1.95-4.43,2.25,2.25,0,0,0-.78-.69,1,1,0,0,0-1,.05c-.45.36-.35,1-.16,1.59a9.07,9.07,0,0,0,3.33,4.55"/><path class="cls-1" d="M580.93,316.57a35.44,35.44,0,0,1,5.74-3.05,1.05,1.05,0,0,1,1-.06.68.68,0,0,1,.22.71,1.68,1.68,0,0,1-.4.68,8.87,8.87,0,0,1-7.08,2.94"/><path class="cls-1" d="M583.15,309.06l4.73-3.09a4.48,4.48,0,0,1,1.44-.7,1.47,1.47,0,0,1,1.46.44,1.45,1.45,0,0,1,0,1.53,3.77,3.77,0,0,1-1.1,1.15,10.62,10.62,0,0,1-3.33,1.86,4.41,4.41,0,0,1-3.42,0"/><path class="cls-1" d="M585.34,300.49a12.49,12.49,0,0,1,5.06-4.07,2.11,2.11,0,0,1,1.06-.24,1.58,1.58,0,0,1,1.22,1.6,3,3,0,0,1-1,2.16,6.38,6.38,0,0,1-2.15,1.19,14.62,14.62,0,0,1-4.44.85"/><path class="cls-1" d="M586.34,292.56a14.66,14.66,0,0,1,5.06-5.41,1.52,1.52,0,0,1,1.49-.38,1.07,1.07,0,0,1,.52.84,2.45,2.45,0,0,1-.17,1,7.81,7.81,0,0,1-7,5.13"/><path class="cls-1" d="M586.6,288.43a21.58,21.58,0,0,0,1.3-3.69,7,7,0,0,0-.14-3.87,2.93,2.93,0,0,0-.93-1.38,1.6,1.6,0,0,0-1.58-.28,1.72,1.72,0,0,0-.94,1.17,4.26,4.26,0,0,0-.07,1.55c.22,2.48,1,5.38,2.36,6.5"/><path class="cls-1" d="M545.08,324v6a2.35,2.35,0,0,0,2.34,2.35h40.81a2.35,2.35,0,0,0,2.35-2.35v-6Z"/><polygon class="cls-3" points="548.61 332.26 548.95 334.16 586.61 336.84 587.56 332.26 548.61 332.26"/><rect class="cls-4" x="214.56" y="32.89" width="217.6" height="163.23" rx="4.75"/><rect class="cls-5" x="324.34" y="57.74" width="95.41" height="43.14" rx="8.21"/><path class="cls-6" d="M393.38,75.92a1,1,0,0,1,0,.28l0,.77c0,.71,0,1.69,0,2.91,0,2.53,0,6.05,0,10.2l0-.09a4.33,4.33,0,0,0,2,1,9.79,9.79,0,0,0,2.45.28,8.29,8.29,0,0,0,4.92-1.47l-.06.13h0c0-5.23,0-10.06,0-14V76a2.05,2.05,0,0,0-.76-.73,4.71,4.71,0,0,0-1-.43,8.31,8.31,0,0,0-2-.34,12,12,0,0,0-3.24.18,5.23,5.23,0,0,0-1.91.77,2.33,2.33,0,0,0-.41.36c-.09.09-.12.14-.13.13a1.46,1.46,0,0,1,.49-.56,5.17,5.17,0,0,1,1.92-.86,12.61,12.61,0,0,1,3.3-.25,8.82,8.82,0,0,1,2,.32,3.22,3.22,0,0,1,1.93,1.3v0c0,4,0,8.8,0,14h0V90l-.06,0a8.62,8.62,0,0,1-5.15,1.55,10.71,10.71,0,0,1-2.54-.31,4.45,4.45,0,0,1-2.17-1.15l0,0v-.06c.05-4.17.1-7.7.13-10.23,0-1.22.05-2.19.06-2.9l0-.77A.9.9,0,0,1,393.38,75.92Z"/><path class="cls-6" d="M402.91,76a4,4,0,0,1-1.25.82,8,8,0,0,1-3.54.72,8.35,8.35,0,0,1-3.56-.63,3.84,3.84,0,0,1-1.27-.79s.52.25,1.36.57a9.62,9.62,0,0,0,3.47.5,8.68,8.68,0,0,0,3.44-.59A14.24,14.24,0,0,1,402.91,76Z"/><path class="cls-6" d="M402.91,79.45a4.11,4.11,0,0,1-1.25.83,8,8,0,0,1-3.54.71,8.52,8.52,0,0,1-3.56-.62,4,4,0,0,1-1.27-.79,14.52,14.52,0,0,1,1.36.56,9.4,9.4,0,0,0,3.47.5,8.68,8.68,0,0,0,3.44-.59C402.39,79.71,402.88,79.4,402.91,79.45Z"/><path class="cls-6" d="M402.91,83a4.11,4.11,0,0,1-1.25.83,7.85,7.85,0,0,1-3.54.71,8.52,8.52,0,0,1-3.56-.62,3.84,3.84,0,0,1-1.27-.79s.52.24,1.36.56a9.59,9.59,0,0,0,3.47.51,8.87,8.87,0,0,0,3.44-.59C402.39,83.21,402.88,82.9,402.91,83Z"/><path class="cls-6" d="M402.91,86.46a4.21,4.21,0,0,1-1.25.82,7.85,7.85,0,0,1-3.54.71,8.52,8.52,0,0,1-3.56-.62,3.84,3.84,0,0,1-1.27-.79s.52.24,1.36.57a9.84,9.84,0,0,0,3.47.5,8.87,8.87,0,0,0,3.44-.59A14.24,14.24,0,0,1,402.91,86.46Z"/><path class="cls-6" d="M403,68.74a2.08,2.08,0,0,1,0,.42c0,.29,0,.68,0,1.18,0,1.06,0,2.56,0,4.43V90.08l0-.1a4.36,4.36,0,0,0,2,1,10.57,10.57,0,0,0,2.47.27,8.18,8.18,0,0,0,4.86-1.47l-.06.13h0c0-8.19,0-15.64.05-21.21v.05a2.25,2.25,0,0,0-.78-.75,4.34,4.34,0,0,0-1-.42,8.56,8.56,0,0,0-2-.34,12.27,12.27,0,0,0-3.23.2,5,5,0,0,0-1.89.78,2.18,2.18,0,0,0-.4.35c-.08.09-.11.14-.12.13s0-.06.09-.16a2.36,2.36,0,0,1,.39-.38,5,5,0,0,1,1.89-.86,12,12,0,0,1,3.28-.26,8.53,8.53,0,0,1,2,.32,3.16,3.16,0,0,1,1.94,1.3h0v0c0,5.57,0,13,0,21.21h0V90l-.06,0a8.61,8.61,0,0,1-5.09,1.55,10.28,10.28,0,0,1-2.55-.29,4.48,4.48,0,0,1-2.22-1.17l0,0v-.07c.06-6.21.1-11.54.13-15.35,0-1.87.05-3.36.07-4.41,0-.5,0-.88,0-1.18A2.12,2.12,0,0,1,403,68.74Z"/><path class="cls-6" d="M412.48,76a4,4,0,0,1-1.25.82,8,8,0,0,1-3.55.72,8.33,8.33,0,0,1-3.55-.63,4.14,4.14,0,0,1-1.28-.79s.53.25,1.37.57a9.62,9.62,0,0,0,3.47.5,8.68,8.68,0,0,0,3.44-.59A14.24,14.24,0,0,1,412.48,76Z"/><path class="cls-6" d="M412.48,79.45a4.11,4.11,0,0,1-1.25.83,8,8,0,0,1-3.55.71,8.5,8.5,0,0,1-3.55-.62,4.38,4.38,0,0,1-1.28-.79,12.84,12.84,0,0,1,1.37.56,9.4,9.4,0,0,0,3.47.5,8.68,8.68,0,0,0,3.44-.59C412,79.71,412.45,79.4,412.48,79.45Z"/><path class="cls-6" d="M412.48,72.36a4,4,0,0,1-1.25.82,8,8,0,0,1-3.55.72,8.33,8.33,0,0,1-3.55-.63,4.14,4.14,0,0,1-1.28-.79s.53.25,1.37.57a9.62,9.62,0,0,0,3.47.5,8.68,8.68,0,0,0,3.44-.59C412,72.62,412.45,72.31,412.48,72.36Z"/><path class="cls-6" d="M412.48,68.74a4.11,4.11,0,0,1-1.25.83,7.87,7.87,0,0,1-3.55.71,8.5,8.5,0,0,1-3.55-.62,4.14,4.14,0,0,1-1.28-.79c0-.05.53.24,1.37.56a9.59,9.59,0,0,0,3.47.51,8.87,8.87,0,0,0,3.44-.59C412,69,412.45,68.69,412.48,68.74Z"/><path class="cls-6" d="M412.48,83a4.11,4.11,0,0,1-1.25.83,7.87,7.87,0,0,1-3.55.71,8.5,8.5,0,0,1-3.55-.62,4.14,4.14,0,0,1-1.28-.79s.53.24,1.37.56a9.59,9.59,0,0,0,3.47.51,8.87,8.87,0,0,0,3.44-.59C412,83.21,412.45,82.9,412.48,83Z"/><path class="cls-6" d="M412.48,86.46a4.21,4.21,0,0,1-1.25.82,7.87,7.87,0,0,1-3.55.71,8.5,8.5,0,0,1-3.55-.62,4.14,4.14,0,0,1-1.28-.79,14.73,14.73,0,0,1,1.37.57,9.84,9.84,0,0,0,3.47.5,8.87,8.87,0,0,0,3.44-.59A14.24,14.24,0,0,1,412.48,86.46Z"/><rect class="cls-3" x="224.86" y="57.74" width="95.41" height="43.14" rx="8.22"/><path class="cls-1" d="M269.34,77.47v1.71h-1.53V77.52A7.32,7.32,0,0,1,264,76.3l.84-1.87a6.21,6.21,0,0,0,3,1.09V73c-1.7-.42-3.59-1-3.59-3.17,0-1.61,1.17-3,3.59-3.28v-1.7h1.53v1.67a7,7,0,0,1,3.1.93l-.77,1.88a6.26,6.26,0,0,0-2.33-.79V71.1c1.69.4,3.55,1,3.55,3.12C272.89,75.81,271.73,77.18,269.34,77.47Zm-1.53-6.75V68.55c-.81.19-1.13.63-1.13,1.13S267.14,70.51,267.81,70.72Zm2.62,3.68c0-.53-.44-.82-1.09-1.05v2.11C270.1,75.29,270.43,74.89,270.43,74.4Z"/><path class="cls-1" d="M276.66,88.26v1.32h-1.19V88.29a5.57,5.57,0,0,1-2.94-.94l.65-1.44a4.92,4.92,0,0,0,2.29.84v-2c-1.31-.32-2.78-.76-2.78-2.45,0-1.25.92-2.33,2.78-2.54V78.47h1.19v1.29a5.28,5.28,0,0,1,2.4.72l-.59,1.45a4.91,4.91,0,0,0-1.81-.61v2c1.31.31,2.75.74,2.75,2.41C279.41,87,278.51,88,276.66,88.26ZM275.47,83V81.35c-.62.14-.87.49-.87.88S275,82.87,275.47,83Zm2,2.85c0-.41-.34-.64-.85-.81V86.7C277.25,86.57,277.51,86.26,277.51,85.88Z"/><rect class="cls-7" x="284.68" y="71.23" width="27.95" height="17.94" rx="3.17"/><rect class="cls-3" x="287.85" y="74.53" width="4.56" height="1.66"/><path class="cls-3" d="M293.36,79.59a30.77,30.77,0,0,1-6.46,0,30.77,30.77,0,0,1,6.46,0Z"/><path class="cls-3" d="M297.77,79.59a7.71,7.71,0,0,1-3.22,0,7.71,7.71,0,0,1,3.22,0Z"/><path class="cls-3" d="M309.77,79.59a17.17,17.17,0,0,1-4.82,0,17.17,17.17,0,0,1,4.82,0Z"/><path class="cls-3" d="M303.81,79.59a16,16,0,0,1-4.65,0,16,16,0,0,1,4.65,0Z"/><path class="cls-3" d="M291.79,83.61a16.74,16.74,0,0,1-4.76,0,16.74,16.74,0,0,1,4.76,0Z"/><path class="cls-3" d="M295.84,85.32a54,54,0,0,1-8.81,0,57.16,57.16,0,0,1,8.81,0Z"/><path class="cls-3" d="M309.77,85.32a4.94,4.94,0,0,1-1.86.18,5,5,0,0,1-1.87-.18,5.41,5.41,0,0,1,1.87-.17A5.33,5.33,0,0,1,309.77,85.32Z"/><path class="cls-8" d="M220.28,32.56H426.21a6,6,0,0,1,6,6v6.31a0,0,0,0,1,0,0H214.31a0,0,0,0,1,0,0V38.53A6,6,0,0,1,220.28,32.56Z"/><circle class="cls-7" cx="221.33" cy="38.86" r="1.76"/><circle class="cls-7" cx="226.79" cy="38.86" r="1.76"/><circle class="cls-7" cx="232.26" cy="38.86" r="1.76"/><rect class="cls-9" x="226.83" y="110.67" width="39.69" height="75.62" rx="5"/><rect class="cls-9" x="278.07" y="110.67" width="39.69" height="75.62" rx="5"/><rect class="cls-9" x="329.75" y="110.67" width="39.69" height="75.62" rx="5"/><rect class="cls-9" x="380.56" y="110.67" width="39.69" height="75.62" rx="5"/><text class="cls-10" transform="translate(232.24 75.6)">Negócios</text><text class="cls-11" transform="translate(332.45 89)">R$ 35.000</text><text class="cls-12" transform="translate(230.95 87.51)">12</text><text class="cls-10" transform="translate(332.95 75.6)"><tspan class="cls-13">L</tspan><tspan x="2.44" y="0">uc</tspan><tspan class="cls-14" x="7.47" y="0">r</tspan><tspan x="9.04" y="0">o</tspan></text><text class="cls-15" transform="translate(285.55 8.97)">Plataforma <tspan class="cls-16" x="54.97" y="0">L</tspan><tspan x="60.63" y="0">CC</tspan></text><rect class="cls-4" x="482.9" y="66.88" width="163.34" height="116.51"/><path class="cls-17" d="M509,113.3V120h1.71c.25,0,.45.15.45.34v2.16h6v-2.16c0-.19.21-.34.46-.34h1.71V113.3h-1.71c-.25,0-.46-.16-.46-.34V110.8h-6V113a.41.41,0,0,1-.45.34Z"/><path class="cls-17" d="M521.48,113.3V120h1.78c.27,0,.48.15.48.34v2.16h6.33v-2.16c0-.19.22-.34.48-.34h1.79V113.3h-1.79c-.26,0-.48-.16-.48-.34V110.8h-6.33V113c0,.18-.21.34-.48.34Z"/><path class="cls-18" d="M504.11,98.69v9.76H537V98.69l-16.43-9.48Z"/><path class="cls-19" d="M501.73,99.85a1.49,1.49,0,0,0,2,.55l.33-.18,16.42-9.49L537,100.22l.32.18a1.5,1.5,0,1,0,1.5-2.6L521.36,87.74a1.65,1.65,0,0,0-.83-.21,1.61,1.61,0,0,0-.82.21L502.28,97.8a1.5,1.5,0,0,0-.55,2Z"/><path class="cls-20" d="M530.76,112.14h5v9.06h-5Z"/><path class="cls-20" d="M518,112.14h5v9.06h-5Z"/><path class="cls-20" d="M505.26,112.14h5.05v9.06h-5.05Z"/><path class="cls-18" d="M503.66,122.54l3.69,1.4,4.56-1.4v-2.16a.34.34,0,0,0-.34-.34H504a.34.34,0,0,0-.34.34Z"/><path class="cls-18" d="M529.15,122.54l4.46,1.4,3.8-1.4v-2.16a.34.34,0,0,0-.34-.34h-7.58a.34.34,0,0,0-.34.34Z"/><path class="cls-18" d="M516.4,122.54l4.13,1,4.13-1v-2.16a.34.34,0,0,0-.34-.34h-7.57a.35.35,0,0,0-.35.34Z"/><path class="cls-19" d="M501.88,125.34h37.31a.35.35,0,0,0,.35-.35v-2.1a.35.35,0,0,0-.35-.35H501.88a.35.35,0,0,0-.35.35V125A.35.35,0,0,0,501.88,125.34Z"/><path class="cls-20" d="M518.78,96a1.84,1.84,0,1,0,1.84-1.84A1.84,1.84,0,0,0,518.78,96Z"/><path class="cls-21" d="M520.53,90.73l-16.42,9.49v2.13l16.42-9.48L537,102.35v-2.13Z"/><path class="cls-22" d="M520.62,94.12A1.84,1.84,0,0,0,518.78,96a2,2,0,0,0,.1.6,1.84,1.84,0,0,1,3.44.09,1.8,1.8,0,0,0,.13-.69A1.84,1.84,0,0,0,520.62,94.12Z"/><path class="cls-22" d="M505.26,113.3h5.05v1.83h-5.05Z"/><path class="cls-22" d="M518,113.3h5v1.83h-5Z"/><path class="cls-22" d="M530.76,113.3h5v1.83h-5Z"/><path class="cls-18" d="M505.26,113.3h6.31a.34.34,0,0,0,.34-.34v-2.62h-8.25V113a.34.34,0,0,0,.34.34Z"/><path class="cls-18" d="M518,113.3h6.31a.34.34,0,0,0,.34-.34v-2.62H516.4V113a.35.35,0,0,0,.35.34Z"/><path class="cls-18" d="M529.49,113.3h7.58a.34.34,0,0,0,.34-.34v-2.62h-8.26V113a.35.35,0,0,0,.34.34Z"/><path class="cls-21" d="M503.66,110.8h8.25v1.34h-8.25Z"/><path class="cls-21" d="M516.4,110.8h8.26v1.34H516.4Z"/><path class="cls-21" d="M529.15,110.8h8.26v1.34h-8.26Z"/><path class="cls-19" d="M503.66,110.8h35.53a.35.35,0,0,0,.35-.35v-2.1a.35.35,0,0,0-.35-.35H501.88a.35.35,0,0,0-.35.35v2.1a.35.35,0,0,0,.35.35Z"/><path class="cls-23" d="M513.61,102.56a1.58,1.58,0,0,0,.25-.86,1.6,1.6,0,0,0-1.59-1.6H511a.57.57,0,0,0-.57.58v2h0v2.4a.58.58,0,0,0,.17.41.58.58,0,0,0,.4.16h1.52a1.77,1.77,0,0,0,1.77-1.77A1.75,1.75,0,0,0,513.61,102.56Zm-1.34-1.31a.45.45,0,0,1,0,.9h-.72v-.9Zm.22,3.3h-.94V103.3h.94a.63.63,0,1,1,0,1.25Z"/><path class="cls-23" d="M518.24,100.54v0a.69.69,0,0,0-.63-.42h0a.68.68,0,0,0-.62.42v0l-1.67,4.39a.59.59,0,0,0,.33.74.58.58,0,0,0,.74-.33l.28-.73h1.9l.27.72a.58.58,0,0,0,.54.38.79.79,0,0,0,.2,0,.58.58,0,0,0,.33-.74Zm-1.14,2.92.51-1.35.51,1.35Z"/><path class="cls-23" d="M524.79,100.1h0a.58.58,0,0,0-.57.58l0,2.66-2.06-3a.58.58,0,0,0-1,.33v4.44a.58.58,0,0,0,1.15,0v-2.6l2,2.83a.63.63,0,0,0,.71.27.66.66,0,0,0,.45-.65l0-4.31a.58.58,0,0,0-.57-.57Z"/><path class="cls-23" d="M530.62,104.72l-2-1.93,1.83-1.69a.57.57,0,1,0-.77-.84l-1.47,1.34v-1a.57.57,0,1,0-1.14,0v4.51a.57.57,0,0,0,1.14,0V104l1.62,1.55a.55.55,0,0,0,.4.16.54.54,0,0,0,.41-.17.57.57,0,0,0,0-.81Z"/><path class="cls-17" d="M552.74,113.3V120h1.7c.25,0,.46.15.46.34v2.16H561v-2.16c0-.19.2-.34.46-.34h1.7V113.3h-1.7c-.26,0-.46-.16-.46-.34V110.8H554.9V113c0,.18-.21.34-.46.34Z"/><path class="cls-17" d="M565.24,113.3V120H567c.27,0,.49.15.49.34v2.16h6.32v-2.16c0-.19.22-.34.49-.34h1.78V113.3h-1.78c-.27,0-.49-.16-.49-.34V110.8h-6.32V113c0,.18-.22.34-.49.34Z"/><path class="cls-18" d="M547.87,98.69v9.76h32.85V98.69L564.3,89.21Z"/><path class="cls-19" d="M545.49,99.85a1.51,1.51,0,0,0,2.06.55l.32-.18,16.43-9.49,16.42,9.49.33.18a1.5,1.5,0,0,0,1.5-2.6L565.12,87.74a1.73,1.73,0,0,0-1.65,0L546,97.8a1.51,1.51,0,0,0-.55,2Z"/><path class="cls-20" d="M574.52,112.14h5.05v9.06h-5.05Z"/><path class="cls-20" d="M561.77,112.14h5.05v9.06h-5.05Z"/><path class="cls-20" d="M549,112.14h5.05v9.06H549Z"/><path class="cls-18" d="M547.42,122.54l3.7,1.4,4.56-1.4v-2.16a.34.34,0,0,0-.34-.34h-7.58a.34.34,0,0,0-.34.34Z"/><path class="cls-18" d="M572.91,122.54l4.46,1.4,3.8-1.4v-2.16a.34.34,0,0,0-.34-.34h-7.57a.35.35,0,0,0-.35.34Z"/><path class="cls-18" d="M560.17,122.54l4.13,1,4.13-1v-2.16a.35.35,0,0,0-.35-.34h-7.57a.34.34,0,0,0-.34.34Z"/><path class="cls-19" d="M545.64,125.34H583a.35.35,0,0,0,.35-.35v-2.1a.35.35,0,0,0-.35-.35H545.64a.35.35,0,0,0-.35.35V125A.35.35,0,0,0,545.64,125.34Z"/><path class="cls-20" d="M562.54,96a1.84,1.84,0,1,0,1.84-1.84A1.85,1.85,0,0,0,562.54,96Z"/><path class="cls-21" d="M564.3,90.73l-16.43,9.49v2.13l16.43-9.48,16.42,9.48v-2.13Z"/><path class="cls-22" d="M564.38,94.12A1.85,1.85,0,0,0,562.54,96a2,2,0,0,0,.1.6,1.84,1.84,0,0,1,3.44.09,1.81,1.81,0,0,0,.14-.69A1.85,1.85,0,0,0,564.38,94.12Z"/><path class="cls-22" d="M549,113.3h5.05v1.83H549Z"/><path class="cls-22" d="M561.77,113.3h5.05v1.83h-5.05Z"/><path class="cls-22" d="M574.52,113.3h5.05v1.83h-5.05Z"/><path class="cls-18" d="M549,113.3h6.32a.35.35,0,0,0,.34-.34v-2.62h-8.26V113a.34.34,0,0,0,.34.34Z"/><path class="cls-18" d="M561.77,113.3h6.31a.35.35,0,0,0,.35-.34v-2.62h-8.26V113a.34.34,0,0,0,.34.34Z"/><path class="cls-18" d="M573.26,113.3h7.57a.34.34,0,0,0,.34-.34v-2.62h-8.26V113a.35.35,0,0,0,.35.34Z"/><path class="cls-21" d="M547.42,110.8h8.26v1.34h-8.26Z"/><path class="cls-21" d="M560.17,110.8h8.26v1.34h-8.26Z"/><path class="cls-21" d="M572.91,110.8h8.26v1.34h-8.26Z"/><path class="cls-19" d="M547.42,110.8H583a.35.35,0,0,0,.35-.35v-2.1A.35.35,0,0,0,583,108H545.64a.35.35,0,0,0-.35.35v2.1a.35.35,0,0,0,.35.35Z"/><path class="cls-23" d="M557.38,102.56a1.58,1.58,0,0,0,.25-.86,1.6,1.6,0,0,0-1.6-1.6h-1.29a.58.58,0,0,0-.58.58v2h0v2.4a.58.58,0,0,0,.17.41.6.6,0,0,0,.41.16h1.52a1.77,1.77,0,0,0,1.12-3.14ZM556,101.25a.45.45,0,0,1,0,.9h-.72v-.9Zm.23,3.3h-1V103.3h1a.63.63,0,0,1,0,1.25Z"/><path class="cls-23" d="M562,100.54v0a.68.68,0,0,0-.62-.42h0a.69.69,0,0,0-.63.42v0l-1.67,4.39a.57.57,0,0,0,.33.74.58.58,0,0,0,.74-.33l.27-.73h1.9l.27.72a.59.59,0,0,0,.54.38.71.71,0,0,0,.2,0,.57.57,0,0,0,.34-.74Zm-1.15,2.92.52-1.35.51,1.35Z"/><path class="cls-23" d="M568.55,100.1h0a.58.58,0,0,0-.56.58l0,2.66-2.06-3a.56.56,0,0,0-.64-.22.56.56,0,0,0-.4.55v4.44a.57.57,0,0,0,1.14,0v-2.6l2,2.83a.64.64,0,0,0,.72.27.66.66,0,0,0,.44-.65l0-4.31a.58.58,0,0,0-.57-.57Z"/><path class="cls-23" d="M574.39,104.72l-2-1.93,1.84-1.69a.57.57,0,1,0-.78-.84L572,101.6v-1a.58.58,0,0,0-1.15,0v4.51a.58.58,0,0,0,1.15,0V104l1.61,1.55a.57.57,0,0,0,.4.16.54.54,0,0,0,.41-.17.57.57,0,0,0,0-.81Z"/><path class="cls-17" d="M596.5,113.3V120h1.7c.25,0,.46.15.46.34v2.16h6.05v-2.16c0-.19.21-.34.46-.34h1.7V113.3h-1.7c-.25,0-.46-.16-.46-.34V110.8h-6.05V113c0,.18-.21.34-.46.34Z"/><path class="cls-17" d="M609,113.3V120h1.79c.26,0,.48.15.48.34v2.16h6.33v-2.16c0-.19.22-.34.48-.34h1.78V113.3h-1.78c-.26,0-.48-.16-.48-.34V110.8h-6.33V113c0,.18-.22.34-.48.34Z"/><path class="cls-18" d="M591.63,98.69v9.76h32.86V98.69l-16.43-9.48Z"/><path class="cls-19" d="M589.26,99.85a1.49,1.49,0,0,0,2,.55l.32-.18,16.43-9.49,16.43,9.49.32.18a1.5,1.5,0,0,0,1.5-2.6L608.89,87.74a1.75,1.75,0,0,0-1.66,0L589.81,97.8a1.49,1.49,0,0,0-.55,2Z"/><path class="cls-20" d="M618.28,112.14h5.05v9.06h-5.05Z"/><path class="cls-20" d="M605.54,112.14h5v9.06h-5Z"/><path class="cls-20" d="M592.79,112.14h5.05v9.06h-5.05Z"/><path class="cls-18" d="M591.18,122.54l3.7,1.4,4.56-1.4v-2.16a.34.34,0,0,0-.34-.34h-7.58a.34.34,0,0,0-.34.34Z"/><path class="cls-18" d="M616.68,122.54l4.46,1.4,3.8-1.4v-2.16a.34.34,0,0,0-.34-.34H617a.34.34,0,0,0-.34.34Z"/><path class="cls-18" d="M603.93,122.54l4.13,1,4.13-1v-2.16a.34.34,0,0,0-.34-.34h-7.58a.34.34,0,0,0-.34.34Z"/><path class="cls-19" d="M589.41,125.34h37.3a.35.35,0,0,0,.35-.35v-2.1a.35.35,0,0,0-.35-.35h-37.3a.35.35,0,0,0-.35.35V125A.35.35,0,0,0,589.41,125.34Z"/><path class="cls-20" d="M606.31,96a1.84,1.84,0,1,0,1.83-1.84A1.84,1.84,0,0,0,606.31,96Z"/><path class="cls-21" d="M608.06,90.73l-16.43,9.49v2.13l16.43-9.48,16.43,9.48v-2.13Z"/><path class="cls-22" d="M608.14,94.12A1.84,1.84,0,0,0,606.31,96a1.72,1.72,0,0,0,.1.6,1.82,1.82,0,0,1,1.7-1.15,1.85,1.85,0,0,1,1.74,1.24A2,2,0,0,0,610,96,1.84,1.84,0,0,0,608.14,94.12Z"/><path class="cls-22" d="M592.79,113.3h5.05v1.83h-5.05Z"/><path class="cls-22" d="M605.54,113.3h5v1.83h-5Z"/><path class="cls-22" d="M618.28,113.3h5.05v1.83h-5.05Z"/><path class="cls-18" d="M592.79,113.3h6.31a.34.34,0,0,0,.34-.34v-2.62h-8.26V113a.35.35,0,0,0,.34.34Z"/><path class="cls-18" d="M605.54,113.3h6.31a.34.34,0,0,0,.34-.34v-2.62h-8.26V113a.34.34,0,0,0,.34.34Z"/><path class="cls-18" d="M617,113.3h7.58a.35.35,0,0,0,.34-.34v-2.62h-8.26V113a.34.34,0,0,0,.34.34Z"/><path class="cls-21" d="M591.18,110.8h8.26v1.34h-8.26Z"/><path class="cls-21" d="M603.93,110.8h8.26v1.34h-8.26Z"/><path class="cls-21" d="M616.68,110.8h8.26v1.34h-8.26Z"/><path class="cls-19" d="M591.18,110.8h35.53a.35.35,0,0,0,.35-.35v-2.1a.34.34,0,0,0-.35-.35h-37.3a.35.35,0,0,0-.35.35v2.1a.35.35,0,0,0,.35.35Z"/><path class="cls-23" d="M601.14,102.56a1.58,1.58,0,0,0,.25-.86,1.6,1.6,0,0,0-1.6-1.6H598.5a.57.57,0,0,0-.57.58v2h0v2.4a.55.55,0,0,0,.57.57H600a1.77,1.77,0,0,0,1.77-1.77A1.75,1.75,0,0,0,601.14,102.56Zm-1.35-1.31a.45.45,0,0,1,0,.9h-.72v-.9Zm.23,3.3h-.95V103.3H600a.63.63,0,0,1,0,1.25Z"/><path class="cls-23" d="M605.77,100.54v0a.69.69,0,0,0-.63-.42h0a.68.68,0,0,0-.62.42v0l-1.67,4.39a.59.59,0,0,0,.33.74.58.58,0,0,0,.74-.33l.28-.73h1.89l.28.72a.57.57,0,0,0,.53.38.65.65,0,0,0,.2,0,.57.57,0,0,0,.34-.74Zm-1.15,2.92.52-1.35.51,1.35Z"/><path class="cls-23" d="M612.31,100.1h0a.58.58,0,0,0-.57.58l0,2.66-2.06-3a.56.56,0,0,0-.64-.22.56.56,0,0,0-.4.55v4.44a.58.58,0,0,0,1.15,0v-2.6l2,2.83a.62.62,0,0,0,.71.27.66.66,0,0,0,.45-.65l0-4.31a.59.59,0,0,0-.58-.57Z"/><path class="cls-23" d="M618.15,104.72l-2-1.93L618,101.1a.57.57,0,1,0-.78-.84l-1.46,1.34v-1a.58.58,0,0,0-1.15,0v4.51a.58.58,0,0,0,1.15,0V104l1.61,1.55a.59.59,0,0,0,.82,0,.57.57,0,0,0,0-.81Z"/><path class="cls-17" d="M528.32,155.29V162H530c.25,0,.46.16.46.34v2.16h6v-2.16c0-.18.2-.34.46-.34h1.7v-6.74H537c-.26,0-.46-.15-.46-.34v-2.16h-6V155c0,.19-.21.34-.46.34Z"/><path class="cls-17" d="M540.82,155.29V162h1.78c.27,0,.49.16.49.34v2.16h6.33v-2.16c0-.18.21-.34.48-.34h1.78v-6.74H549.9c-.27,0-.48-.15-.48-.34v-2.16h-6.33V155c0,.19-.22.34-.49.34Z"/><path class="cls-18" d="M523.45,140.68v9.77H556.3v-9.77l-16.42-9.48Z"/><path class="cls-19" d="M521.07,141.84a1.52,1.52,0,0,0,2.06.56l.32-.19,16.43-9.49,16.42,9.49.33.19a1.51,1.51,0,0,0,1.5-2.61L540.7,129.73a1.73,1.73,0,0,0-1.65,0l-17.43,10.06a1.51,1.51,0,0,0-.55,2.05Z"/><path class="cls-20" d="M550.1,154.13h5v9.06h-5Z"/><path class="cls-20" d="M537.35,154.13h5v9.06h-5Z"/><path class="cls-20" d="M524.6,154.13h5v9.06h-5Z"/><path class="cls-18" d="M523,164.53l3.7,1.4,4.56-1.4v-2.16a.35.35,0,0,0-.34-.34h-7.58a.34.34,0,0,0-.34.34Z"/><path class="cls-18" d="M548.5,164.53l4.45,1.4,3.8-1.4v-2.16a.34.34,0,0,0-.34-.34h-7.57a.34.34,0,0,0-.34.34Z"/><path class="cls-18" d="M535.75,164.53l4.13,1,4.13-1v-2.16a.35.35,0,0,0-.35-.34h-7.57a.34.34,0,0,0-.34.34Z"/><path class="cls-19" d="M521.23,167.33h37.3a.35.35,0,0,0,.35-.35v-2.1a.35.35,0,0,0-.35-.35h-37.3a.36.36,0,0,0-.36.35V167A.35.35,0,0,0,521.23,167.33Z"/><path class="cls-20" d="M538.13,138a1.84,1.84,0,1,0,1.83-1.84,1.83,1.83,0,0,0-1.83,1.84Z"/><path class="cls-21" d="M539.88,132.72l-16.43,9.49v2.13l16.43-9.48,16.42,9.48v-2.13Z"/><path class="cls-22" d="M540,136.11a1.84,1.84,0,0,0-1.83,1.84,2,2,0,0,0,.09.6,1.86,1.86,0,0,1,1.71-1.15,1.83,1.83,0,0,1,1.73,1.24,1.77,1.77,0,0,0,.14-.69A1.85,1.85,0,0,0,540,136.11Z"/><path class="cls-22" d="M524.6,155.29h5v1.83h-5Z"/><path class="cls-22" d="M537.35,155.29h5v1.83h-5Z"/><path class="cls-22" d="M550.1,155.29h5v1.83h-5Z"/><path class="cls-18" d="M524.6,155.29h6.32a.34.34,0,0,0,.34-.34v-2.62H523V155a.34.34,0,0,0,.34.34Z"/><path class="cls-18" d="M537.35,155.29h6.31A.35.35,0,0,0,544,155v-2.62h-8.26V155a.34.34,0,0,0,.34.34Z"/><path class="cls-18" d="M548.84,155.29h7.57a.34.34,0,0,0,.34-.34v-2.62H548.5V155a.34.34,0,0,0,.34.34Z"/><path class="cls-21" d="M523,152.79h8.26v1.34H523Z"/><path class="cls-21" d="M535.75,152.79H544v1.34h-8.26Z"/><path class="cls-21" d="M548.5,152.79h8.25v1.34H548.5Z"/><path class="cls-19" d="M523,152.79h35.53a.35.35,0,0,0,.35-.35v-2.1a.35.35,0,0,0-.35-.35h-37.3a.35.35,0,0,0-.36.35v2.1a.36.36,0,0,0,.36.35Z"/><path class="cls-23" d="M533,144.55a1.58,1.58,0,0,0,.25-.86,1.6,1.6,0,0,0-1.6-1.6h-1.29a.58.58,0,0,0-.58.58v2.05h0v2.4a.58.58,0,0,0,.17.41.57.57,0,0,0,.41.17h1.52a1.77,1.77,0,0,0,1.77-1.77A1.75,1.75,0,0,0,533,144.55Zm-1.35-1.31a.45.45,0,0,1,0,.9h-.72v-.91Zm.23,3.3h-1v-1.26h1a.63.63,0,0,1,0,1.25Z"/><path class="cls-23" d="M537.59,142.53v0a.68.68,0,0,0-.62-.42h0a.69.69,0,0,0-.63.42v0l-1.67,4.39a.56.56,0,0,0,.33.74.58.58,0,0,0,.74-.33l.27-.73h1.9l.27.72a.59.59,0,0,0,.54.38.65.65,0,0,0,.2,0,.57.57,0,0,0,.34-.74Zm-1.15,2.92.52-1.35.51,1.35Z"/><path class="cls-23" d="M544.13,142.09h0a.58.58,0,0,0-.56.58l0,2.66-2.06-3a.56.56,0,0,0-.64-.22.57.57,0,0,0-.4.55v4.44a.57.57,0,1,0,1.14,0v-2.6l2,2.84a.65.65,0,0,0,.72.26.66.66,0,0,0,.44-.65l0-4.31a.58.58,0,0,0-.57-.57Z"/><path class="cls-23" d="M550,146.71l-2-1.93,1.83-1.69a.57.57,0,0,0-.78-.84l-1.46,1.34v-1a.58.58,0,0,0-1.15,0v4.51a.58.58,0,1,0,1.15,0V146l1.61,1.55a.58.58,0,0,0,.4.17.55.55,0,0,0,.41-.18.57.57,0,0,0,0-.81Z"/><path class="cls-17" d="M576.83,155.29V162h1.7c.25,0,.46.16.46.34v2.16h6v-2.16c0-.18.21-.34.47-.34h1.7v-6.74h-1.7c-.26,0-.47-.15-.47-.34v-2.16h-6V155c0,.19-.21.34-.46.34Z"/><path class="cls-17" d="M589.33,155.29V162h1.78c.27,0,.48.16.48.34v2.16h6.33v-2.16c0-.18.22-.34.49-.34h1.78v-6.74h-1.78c-.27,0-.49-.15-.49-.34v-2.16h-6.33V155c0,.19-.21.34-.48.34Z"/><path class="cls-18" d="M572,140.68v9.77h32.85v-9.77l-16.43-9.48Z"/><path class="cls-19" d="M569.58,141.84a1.52,1.52,0,0,0,2.06.56l.32-.19,16.42-9.49,16.43,9.49.33.19a1.51,1.51,0,0,0,1.5-2.61l-17.43-10.06a1.73,1.73,0,0,0-1.65,0l-17.43,10.06a1.51,1.51,0,0,0-.55,2.05Z"/><path class="cls-20" d="M598.61,154.13h5v9.06h-5Z"/><path class="cls-20" d="M585.86,154.13h5v9.06h-5Z"/><path class="cls-20" d="M573.11,154.13h5v9.06h-5Z"/><path class="cls-18" d="M571.51,164.53l3.7,1.4,4.56-1.4v-2.16a.35.35,0,0,0-.34-.34h-7.58a.34.34,0,0,0-.34.34Z"/><path class="cls-18" d="M597,164.53l4.46,1.4,3.8-1.4v-2.16a.34.34,0,0,0-.34-.34h-7.57a.35.35,0,0,0-.35.34Z"/><path class="cls-18" d="M584.26,164.53l4.13,1,4.12-1v-2.16a.34.34,0,0,0-.34-.34H584.6a.34.34,0,0,0-.34.34Z"/><path class="cls-19" d="M569.73,167.33H607a.35.35,0,0,0,.35-.35v-2.1a.35.35,0,0,0-.35-.35H569.73a.35.35,0,0,0-.35.35V167A.35.35,0,0,0,569.73,167.33Z"/><path class="cls-20" d="M586.63,138a1.84,1.84,0,1,0,1.84-1.84,1.84,1.84,0,0,0-1.84,1.84Z"/><path class="cls-21" d="M588.38,132.72,572,142.21v2.13l16.42-9.48,16.43,9.48v-2.13Z"/><path class="cls-22" d="M588.47,136.11a1.85,1.85,0,0,0-1.84,1.84,2,2,0,0,0,.1.6,1.84,1.84,0,0,1,3.44.09,1.77,1.77,0,0,0,.14-.69A1.85,1.85,0,0,0,588.47,136.11Z"/><path class="cls-22" d="M573.11,155.29h5v1.83h-5Z"/><path class="cls-22" d="M585.86,155.29h5v1.83h-5Z"/><path class="cls-22" d="M598.61,155.29h5v1.83h-5Z"/><path class="cls-18" d="M573.11,155.29h6.32a.34.34,0,0,0,.34-.34v-2.62h-8.26V155a.34.34,0,0,0,.34.34Z"/><path class="cls-18" d="M585.86,155.29h6.31a.34.34,0,0,0,.34-.34v-2.62h-8.25V155a.34.34,0,0,0,.34.34Z"/><path class="cls-18" d="M597.35,155.29h7.57a.34.34,0,0,0,.34-.34v-2.62H597V155a.35.35,0,0,0,.35.34Z"/><path class="cls-21" d="M571.51,152.79h8.26v1.34h-8.26Z"/><path class="cls-21" d="M584.26,152.79h8.25v1.34h-8.25Z"/><path class="cls-21" d="M597,152.79h8.26v1.34H597Z"/><path class="cls-19" d="M571.51,152.79H607a.35.35,0,0,0,.35-.35v-2.1A.35.35,0,0,0,607,150H569.73a.35.35,0,0,0-.35.35v2.1a.35.35,0,0,0,.35.35Z"/><path class="cls-23" d="M581.47,144.55a1.66,1.66,0,0,0,.25-.86,1.6,1.6,0,0,0-1.6-1.6h-1.3a.58.58,0,0,0-.57.58v2.05h0v2.4a.58.58,0,0,0,.17.41.56.56,0,0,0,.4.17h1.52a1.77,1.77,0,0,0,1.13-3.14Zm-1.35-1.31a.45.45,0,1,1,0,.9h-.72v-.91Zm.22,3.3h-.94v-1.26h.94a.63.63,0,1,1,0,1.25Z"/><path class="cls-23" d="M586.1,142.53v0a.68.68,0,0,0-.62-.42h0a.69.69,0,0,0-.63.42v0l-1.67,4.39a.56.56,0,0,0,.33.74.59.59,0,0,0,.74-.33l.27-.73h1.9l.27.72a.59.59,0,0,0,.54.38.71.71,0,0,0,.2,0,.56.56,0,0,0,.33-.74ZM585,145.45l.51-1.35.52,1.35Z"/><path class="cls-23" d="M592.64,142.09h0a.59.59,0,0,0-.57.58l0,2.66-2.06-3a.56.56,0,0,0-.64-.22.58.58,0,0,0-.41.55v4.44a.58.58,0,1,0,1.15,0v-2.6l2,2.84a.65.65,0,0,0,.72.26.66.66,0,0,0,.44-.65l0-4.31a.58.58,0,0,0-.57-.57Z"/><path class="cls-23" d="M598.48,146.71l-2-1.93,1.84-1.69a.58.58,0,0,0,0-.81.57.57,0,0,0-.81,0l-1.46,1.34v-1a.58.58,0,0,0-1.15,0v4.51a.58.58,0,1,0,1.15,0V146l1.61,1.55a.58.58,0,0,0,.4.17.55.55,0,0,0,.41-.18.58.58,0,0,0,0-.81Z"/><text class="cls-15" transform="translate(508.33 54.26)">Instituições Financeiras</text><text class="cls-15" transform="translate(49.94 54.48)">Seus Clientes</text><rect class="cls-4" x="0.25" y="66.66" width="163.34" height="116.51"/><circle class="cls-5" cx="84.11" cy="154.26" r="20.94"/><path class="cls-8" d="M79.18,130.84c.44-2.13,2-3.26,4-4.08a6.79,6.79,0,0,1,6.26.64c1.21.81,2.19,2,3.59,2.44,2.31.66,4.87-1.2,7.1-.31a3.1,3.1,0,0,1-1.12,6,2.76,2.76,0,0,1,1.31,3.91,4.14,4.14,0,0,1-4.1,1.76,8.57,8.57,0,0,1-4.2-2c-1.23-1-2.35-2.11-3.66-3a6.68,6.68,0,0,0-4.43-1.34,6.21,6.21,0,0,0-4.69,3.91A15.75,15.75,0,0,0,78.3,145a26.67,26.67,0,0,1-.42,6.38.8.8,0,0,1-.39.6c-.34.13-.65-.22-.84-.53A31.23,31.23,0,0,1,72.39,140c-.38-2.34-.45-4.58.73-6.64s4.38-3.71,6.06-2.56"/><path class="cls-24" d="M75.64,140.63,76,163.91c0,4,1,9.76,7.39,9.39h0c5.56-.73,6.9-5.89,6.85-9.58,0-1.75,0-3.22,0-3.4,0,0,6.09-.63,6.45-6.5.18-2.83.05-8.71-.13-14a11.1,11.1,0,0,0-10.73-10.58l-.58,0C78.86,129.27,75.4,134.51,75.64,140.63Z"/><path class="cls-25" d="M90.17,160.24a14.32,14.32,0,0,1-7.77-2.54s1.65,4.31,7.71,4.06Z"/><path class="cls-8" d="M94,143.35a.85.85,0,0,1-.87.8.8.8,0,0,1-.85-.79.84.84,0,0,1,.87-.81A.81.81,0,0,1,94,143.35Z"/><path class="cls-8" d="M95,142.63c-.11.1-.74-.4-1.67-.44s-1.63.38-1.73.26.08-.24.38-.44a2.46,2.46,0,0,1,1.39-.34,2.33,2.33,0,0,1,1.32.48C95,142.38,95.09,142.58,95,142.63Z"/><path class="cls-8" d="M85.11,143.05a.85.85,0,0,1-.87.81.81.81,0,0,1-.85-.8.85.85,0,0,1,.87-.81A.81.81,0,0,1,85.11,143.05Z"/><path class="cls-8" d="M85.9,142.37c-.11.11-.75-.39-1.67-.43s-1.63.38-1.73.26.07-.24.38-.44a2.54,2.54,0,0,1,1.39-.35,2.26,2.26,0,0,1,1.32.49C85.87,142.12,86,142.33,85.9,142.37Z"/><path class="cls-8" d="M88.94,149.22a6.42,6.42,0,0,1,1.52-.19c.24,0,.46-.05.51-.21a1.11,1.11,0,0,0-.12-.69c-.2-.56-.4-1.16-.62-1.78a30.37,30.37,0,0,1-1.35-4.67,30.29,30.29,0,0,1,1.74,4.55l.58,1.8a1.27,1.27,0,0,1,.08.91.56.56,0,0,1-.41.31,1.46,1.46,0,0,1-.4,0A6,6,0,0,1,88.94,149.22Z"/><path class="cls-8" d="M89.37,152.36c-.13.08-.6-.79-1.7-1s-2,.36-2.07.24.12-.27.52-.49a2.53,2.53,0,0,1,1.7-.25,2.17,2.17,0,0,1,1.37.87C89.42,152.07,89.44,152.34,89.37,152.36Z"/><path class="cls-8" d="M86.25,140.93c-.1.24-1,.08-2.12.16s-2,.32-2.12.1.1-.34.47-.56a3.61,3.61,0,0,1,1.59-.46,3.54,3.54,0,0,1,1.64.27C86.11,140.61,86.3,140.81,86.25,140.93Z"/><path class="cls-8" d="M94.82,140c-.18.2-.8-.05-1.57-.09s-1.43.07-1.57-.15,0-.31.35-.49a2.21,2.21,0,0,1,1.29-.28,2.25,2.25,0,0,1,1.23.47C94.82,139.69,94.89,139.9,94.82,140Z"/><path class="cls-24" d="M75.92,145.46c-.1-.05-4.09-1.43-4.16,2.71s4.1,3.34,4.11,3.23S75.92,145.46,75.92,145.46Z"/><path class="cls-25" d="M74.63,149.81s-.07.05-.19.1a.7.7,0,0,1-.54,0,1.79,1.79,0,0,1-.8-1.62,2.32,2.32,0,0,1,.22-1,.83.83,0,0,1,.55-.54.37.37,0,0,1,.42.2c0,.12,0,.2,0,.21s.09-.07.06-.24a.53.53,0,0,0-.16-.26.54.54,0,0,0-.4-.11,1,1,0,0,0-.76.63,2.47,2.47,0,0,0-.27,1.15,1.87,1.87,0,0,0,1,1.8.75.75,0,0,0,.66-.1C74.62,149.91,74.65,149.82,74.63,149.81Z"/><path class="cls-8" d="M97.81,138.91a8.71,8.71,0,0,1-7.67-2.11c-1.41-1.32-2.46-3.16-4.27-3.82a4.94,4.94,0,0,0-3.78.34,9.56,9.56,0,0,0-3,2.48c1,3.12.08,6.51-.87,9.66a1.62,1.62,0,0,1-.53.93c-.5.35-1.22,0-1.62-.44a5.14,5.14,0,0,1-1-2.75,17.13,17.13,0,0,1,.36-6.69,11.63,11.63,0,0,1,3.46-5.69,11,11,0,0,1,7.82-2.54,13.47,13.47,0,0,1,7.67,3.16,7.83,7.83,0,0,1,2.4,3.05"/><circle class="cls-5" cx="83.03" cy="101.71" r="20.94"/><path class="cls-25" d="M73.09,87.31l1.55,26.26a7.5,7.5,0,0,0,7.3,7.23h0a7.52,7.52,0,0,0,7.3-7.77c0-3.2,0-6.16,0-6.16a7.06,7.06,0,0,0,5.79-7c0-2.86-.34-8.69-.75-14A11.23,11.23,0,0,0,83.29,75.2H83C77.07,75.57,72.58,81,73.09,87.31Z"/><path class="cls-26" d="M89.2,106.78a12.75,12.75,0,0,1-7.46-2.24s1.76,4.35,7.47,3.8Z"/><path class="cls-8" d="M92.89,89.71c-.1.11-.72-.37-1.6-.37s-1.52.47-1.62.35.06-.25.34-.46a2.12,2.12,0,0,1,2.57,0C92.85,89.46,92.94,89.66,92.89,89.71Z"/><path class="cls-8" d="M84.33,89.71c-.1.11-.72-.37-1.6-.37s-1.52.47-1.62.35.06-.25.34-.46a2.16,2.16,0,0,1,1.3-.43,2.11,2.11,0,0,1,1.27.44C84.29,89.46,84.38,89.66,84.33,89.71Z"/><path class="cls-8" d="M87.52,95.54A6,6,0,0,1,89,95.27c.23,0,.44-.07.48-.23a1.26,1.26,0,0,0-.15-.7c-.21-.58-.43-1.18-.67-1.81a31.87,31.87,0,0,1-1.49-4.71A31.08,31.08,0,0,1,89,92.4c.22.63.43,1.23.64,1.81a1.43,1.43,0,0,1,.11.93.58.58,0,0,1-.37.35,1.89,1.89,0,0,1-.38.05A5.08,5.08,0,0,1,87.52,95.54Z"/><path class="cls-8" d="M84.56,85c-.09.25-1,.14-2,.27s-1.86.42-2,.2.08-.35.42-.59a3.14,3.14,0,0,1,1.48-.55,3.26,3.26,0,0,1,1.57.19C84.41,84.71,84.6,84.91,84.56,85Z"/><path class="cls-8" d="M92.65,85.81c-.15.21-.76,0-1.49,0s-1.34.14-1.48-.08,0-.32.3-.51a2,2,0,0,1,1.21-.35,2.05,2.05,0,0,1,1.19.42C92.64,85.49,92.72,85.71,92.65,85.81Z"/><path class="cls-8" d="M79.3,80.69l0,0a4.82,4.82,0,0,0-1.67,3.07l0,.12c-.22,1.72-.18,3.47-.42,5.19a8,8,0,0,1-2,4.65c-.5.49-1.37.83-1.78.25a1.49,1.49,0,0,1-.2-.78c-.31-4.16-1.39-7.85-1.38-12.19a3.7,3.7,0,0,1,1.44-3c.87-.66,1.92-1.33,2.88-.85s2.2,2.37,2.94,3.17"/><path class="cls-25" d="M75,90c-.1,0-3.93-1.23-3.81,2.9a3,3,0,0,0,4,3C75.25,95.84,75,90,75,90Z"/><path class="cls-26" d="M74,94.44s-.07,0-.18.11a.66.66,0,0,1-.51,0A1.8,1.8,0,0,1,72.48,93a2.45,2.45,0,0,1,.16-1c.11-.31.29-.53.5-.57a.35.35,0,0,1,.41.18c0,.11,0,.2,0,.2s.08-.07.05-.24a.47.47,0,0,0-.17-.25.48.48,0,0,0-.38-.09,1,1,0,0,0-.69.66,2.7,2.7,0,0,0-.2,1.16,1.89,1.89,0,0,0,1.05,1.75.73.73,0,0,0,.62-.13C74,94.54,74,94.45,74,94.44Z"/><path class="cls-8" d="M76,77.83c-1-1.65,1.67-4,3.6-4.66s4.48.35,6.4,1a10.4,10.4,0,0,0,3.7,1,8.46,8.46,0,0,0,2.48-.67,6.09,6.09,0,0,1,2.5-.52,2.35,2.35,0,0,1,2.06,1.37,1.57,1.57,0,0,1-1,2.11,2,2,0,0,1,2.83,1.49,2.07,2.07,0,0,1-2.32,2.26c.56-.44,1.41.29,1.35,1a2.11,2.11,0,0,1-1.34,1.56A7,7,0,0,1,91,83.7c-1.68-.6-3.25-1.53-4.92-2.17s-4.48-1.8-6.16-1.18c-1.24.46-2.1,2-2.8,1.69a2.53,2.53,0,0,1-1.24-1.86A7.74,7.74,0,0,1,76,77.83"/><path class="cls-27" d="M96.2,77.34s-.2.3-.62.78a5.32,5.32,0,0,1-2.17,1.48,4.7,4.7,0,0,1-3.73-.16,18,18,0,0,1-3.78-3.07,8,8,0,0,0-4.4-2.23,4.37,4.37,0,0,0-3.74,1.37,3.71,3.71,0,0,0-.89,2.66,2.88,2.88,0,0,0,.17.76c.07.16.11.24.13.24a5.82,5.82,0,0,1-.15-1A3.65,3.65,0,0,1,78,75.7a4.16,4.16,0,0,1,3.5-1.19,7.78,7.78,0,0,1,4.19,2.17,17,17,0,0,0,3.88,3.1,4.91,4.91,0,0,0,4,.09,5.26,5.26,0,0,0,2.2-1.64,4.26,4.26,0,0,0,.4-.65C96.18,77.43,96.22,77.34,96.2,77.34Z"/><path class="cls-27" d="M74,89.86s.17-.11.32-.44a2.9,2.9,0,0,0,.2-1.5c-.09-1.33-1.21-2.75-1.35-4.59a4.47,4.47,0,0,1,.43-2.46,3,3,0,0,1,1.46-1.32,2.36,2.36,0,0,1,1.31-.19c.31,0,.48.13.49.1s-.14-.15-.46-.26a2.42,2.42,0,0,0-1.44.07,3.22,3.22,0,0,0-1.66,1.41,4.53,4.53,0,0,0-.51,2.69,7.76,7.76,0,0,0,.75,2.6,7.58,7.58,0,0,1,.7,2A3.24,3.24,0,0,1,74,89.86Z"/><path class="cls-6" d="M84.56,96.68a4.1,4.1,0,0,0,1.21,2.38,2.34,2.34,0,0,0,2.45.46,4.2,4.2,0,0,0,1.57-1.71Z"/><circle class="cls-5" cx="32.86" cy="154.26" r="20.94" transform="translate(-124.82 150.8) rotate(-76.72)"/><path class="cls-8" d="M52.47,151.52c-.52-.41-1.26-.47-1.79-.87-1.1-.83-.78-2.5-1-3.86a11.7,11.7,0,0,0-2-3.94c-.79-1.27-1.71-3.1-1.13-4.48L35.77,158h16.8s.52-3.09.61-4A2.83,2.83,0,0,0,52.47,151.52Z"/><path class="cls-8" d="M30.2,132a4.51,4.51,0,0,1,3.89-2.67c1.65-.2,2.46.48,4.09.11,2.23-.5,3.53-1.26,5-1a6.81,6.81,0,0,1,4.23,2c.88,1,.91,3.41.54,4.71s-1.25,2.15-1.5,3.36a8.14,8.14,0,0,0,.4,3.37,11.32,11.32,0,0,1-2.05,9.7c-2.22,2.61-6.21,3.77-9.27,2.23"/><path class="cls-28" d="M39.29,166l-.09-5.11s4.86-.75,6-7.35a74.45,74.45,0,0,0,.3-13.09c-.18-4-4.19-8-8-7.66L25.21,135v2.14l.34,29.08a7,7,0,0,0,6.87,7.11h0A7,7,0,0,0,39.29,166Z"/><path class="cls-8" d="M43.37,144.47a.83.83,0,0,1-.79.84.79.79,0,0,1-.83-.78.83.83,0,0,1,.8-.84A.78.78,0,0,1,43.37,144.47Z"/><path class="cls-8" d="M44.31,143.23c-.1.11-.71-.38-1.58-.39s-1.52.43-1.61.31.06-.24.34-.45a2.15,2.15,0,0,1,1.29-.39,2.05,2.05,0,0,1,1.26.45C44.27,143,44.36,143.18,44.31,143.23Z"/><path class="cls-8" d="M35,144.31a.82.82,0,0,1-.8.84.79.79,0,0,1-.82-.78.84.84,0,0,1,.8-.84A.8.8,0,0,1,35,144.31Z"/><path class="cls-8" d="M35.74,143.24c-.11.11-.71-.38-1.59-.39s-1.51.43-1.61.31.06-.24.35-.45a2.11,2.11,0,0,1,1.29-.39,2,2,0,0,1,1.25.45C35.7,143,35.79,143.19,35.74,143.24Z"/><path class="cls-8" d="M38.79,150.07a5,5,0,0,1,1.42-.24c.22,0,.43-.07.47-.23a1.14,1.14,0,0,0-.14-.69l-.62-1.79a30.28,30.28,0,0,1-1.4-4.66A32.09,32.09,0,0,1,40.27,147l.6,1.79a1.41,1.41,0,0,1,.1.92.55.55,0,0,1-.37.33,1.08,1.08,0,0,1-.38.05A5.84,5.84,0,0,1,38.79,150.07Z"/><path class="cls-29" d="M39.2,160.88a15.49,15.49,0,0,1-8.42-2.52s2,4.58,8.31,4.08Z"/><path class="cls-29" d="M38.38,152.26a1.55,1.55,0,0,0-1.4-.64,1.43,1.43,0,0,0-1,.54,1,1,0,0,0-.09,1.09,1,1,0,0,0,1.14.32,3.38,3.38,0,0,0,1.13-.68.89.89,0,0,0,.25-.26.32.32,0,0,0,0-.34"/><path class="cls-8" d="M36.21,150.65c.14,0,.13,1,.92,1.7s1.81.63,1.82.77-.23.19-.66.19a2.26,2.26,0,0,1-1.51-.58,2.2,2.2,0,0,1-.72-1.43C36,150.89,36.14,150.64,36.21,150.65Z"/><path class="cls-8" d="M36,139.67c-.09.24-1,.11-2,.22s-1.86.39-2,.16.09-.34.42-.57A3.3,3.3,0,0,1,34,139a3.1,3.1,0,0,1,1.54.22C35.87,139.35,36.06,139.55,36,139.67Z"/><path class="cls-8" d="M44,140.58c-.15.21-.75,0-1.47,0s-1.34.11-1.48-.11,0-.31.31-.5a2,2,0,0,1,1.21-.32,2,2,0,0,1,1.17.44C44,140.27,44.1,140.48,44,140.58Z"/><path class="cls-8" d="M32.51,129.74A8.79,8.79,0,0,1,29.4,142a4.85,4.85,0,0,0-1.92,1.43c-.55.87-.32,2-.22,3a10.47,10.47,0,0,1-2.42,7.74,29.26,29.26,0,0,1-2.95-7.31,25.25,25.25,0,0,0-.83-3.9c-.28-.75-.7-1.44-.94-2.19a6.9,6.9,0,0,1,.19-4.28A10.1,10.1,0,0,1,33,130.21"/><path class="cls-8" d="M21.52,134.12c-2.84,4.17-1.46,6.88-2.56,9-.8,1.54-2.66,2.16-4,3.3a8.15,8.15,0,0,0-2.46,6.41,24,24,0,0,0,1.59,6.9l15.29.07c1.19-3.72-1.77-7.76-.82-11.56.32-1.29,1.09-2.49,1.14-3.82a10.31,10.31,0,0,0-.47-2.62,11.86,11.86,0,0,1,.71-7.34"/><path class="cls-27" d="M48,132.29s-.11-.2-.35-.51a3.59,3.59,0,0,0-1.33-1,5.49,5.49,0,0,0-2.44-.44,10.88,10.88,0,0,0-3,.69c-1,.36-2,.75-3,1a7.42,7.42,0,0,1-2.53.22,4.5,4.5,0,0,1-1.65-.46c-.18-.1-.31-.19-.4-.25s-.13-.1-.12-.11.19.13.55.3a4.64,4.64,0,0,0,1.63.4,7.81,7.81,0,0,0,2.49-.25c.91-.24,1.89-.63,2.93-1a10.62,10.62,0,0,1,3-.69,5.27,5.27,0,0,1,2.49.5,3.4,3.4,0,0,1,1.33,1.08,2.69,2.69,0,0,1,.23.4Z"/><path class="cls-27" d="M45.75,143l.15.1.16.14a1.44,1.44,0,0,1,.19.22,3.47,3.47,0,0,1,.68,1.71,8.24,8.24,0,0,1,.09,1.27c0,.46,0,.95,0,1.46a6.64,6.64,0,0,0,.18,1.57A2.89,2.89,0,0,0,48,150.9a8.72,8.72,0,0,0,1.44.91A2.92,2.92,0,0,1,50.61,153a3.9,3.9,0,0,1,.28,2.7,8.25,8.25,0,0,1-.62,1.73,4.81,4.81,0,0,1-.22.45L50,158s0-.06.05-.17l.19-.46a9.14,9.14,0,0,0,.56-1.74,4.12,4.12,0,0,0,.09-1.24,3.32,3.32,0,0,0-.38-1.36A2.89,2.89,0,0,0,49.36,152a7.84,7.84,0,0,1-1.47-.93A3,3,0,0,1,47,149.5a7,7,0,0,1-.18-1.61c0-.52,0-1,0-1.46a8.19,8.19,0,0,0-.07-1.25,3.61,3.61,0,0,0-.61-1.69A5.83,5.83,0,0,0,45.75,143Z"/><path class="cls-27" d="M19.72,159.17a.46.46,0,0,0,0-.08,1.42,1.42,0,0,1-.11-.24,8.69,8.69,0,0,1-.37-.95,9.21,9.21,0,0,1-.36-1.57,7,7,0,0,1,0-2.14,5.89,5.89,0,0,1,1-2.41,10.32,10.32,0,0,1,2.19-2,7,7,0,0,0,1.15-1.09,3.67,3.67,0,0,0,.7-1.46,8.27,8.27,0,0,0-.16-3.45,13.68,13.68,0,0,1-.49-3.5,4.62,4.62,0,0,1,.37-1.65,4.37,4.37,0,0,1,.95-1.32,8.31,8.31,0,0,1,2.54-1.55c.86-.36,1.68-.64,2.4-1a7.74,7.74,0,0,0,1.81-1.08,4.84,4.84,0,0,0,1.05-1.2,3.43,3.43,0,0,0,.4-.92c.06-.22.07-.35.08-.34a1.85,1.85,0,0,1,0,.35,3.18,3.18,0,0,1-.38.95,4.82,4.82,0,0,1-1,1.23,7.86,7.86,0,0,1-1.82,1.12c-.72.33-1.54.62-2.39,1a8,8,0,0,0-2.49,1.54,4,4,0,0,0-.91,1.27,4.24,4.24,0,0,0-.35,1.59,13.92,13.92,0,0,0,.48,3.45,8.14,8.14,0,0,1,.16,3.53,3.9,3.9,0,0,1-.73,1.52,6.83,6.83,0,0,1-1.18,1.11,10.19,10.19,0,0,0-2.18,2,5.68,5.68,0,0,0-1,2.34,8,8,0,0,0,.3,3.67c.12.42.25.74.33,1l.1.24C19.72,159.14,19.73,159.17,19.72,159.17Z"/><path class="cls-27" d="M32.65,131.26h-.1l-.3,0c-.27,0-.66-.06-1.17-.08a12.77,12.77,0,0,0-4.23.46,8.42,8.42,0,0,0-2.61,1.31,6.75,6.75,0,0,0-2.11,2.58,8.43,8.43,0,0,0-.58,3.65,19.71,19.71,0,0,1-.14,4,5.47,5.47,0,0,1-.72,1.94,4.81,4.81,0,0,1-1.41,1.43c-1.1.73-2.3,1.17-3.22,1.93a4.93,4.93,0,0,0-1.62,2.86,6.9,6.9,0,0,0,.06,2.91,10,10,0,0,0,.87,2.27,16,16,0,0,0,1,1.58c.28.42.52.73.67.95l.18.24.06.09s0,0-.07-.08l-.2-.23c-.16-.21-.4-.52-.7-.94a16,16,0,0,1-1-1.57,9.68,9.68,0,0,1-.89-2.28,6.84,6.84,0,0,1-.09-3A5.09,5.09,0,0,1,16,148.37a37.15,37.15,0,0,1,3.22-2A4.4,4.4,0,0,0,20.55,145a5.51,5.51,0,0,0,.69-1.88,20,20,0,0,0,.14-4,8.61,8.61,0,0,1,.61-3.71,6.8,6.8,0,0,1,2.16-2.63,8.47,8.47,0,0,1,2.67-1.31,12.53,12.53,0,0,1,4.27-.42c.51,0,.9.08,1.16.11l.3.05Z"/><path class="cls-27" d="M24.59,159.83a3.65,3.65,0,0,0,1-.72,4.32,4.32,0,0,0,.81-1.2,5.83,5.83,0,0,0,.46-1.86,7.3,7.3,0,0,0-.24-2.31,21.51,21.51,0,0,0-.82-2.56,19.17,19.17,0,0,1-.89-2.86,7.1,7.1,0,0,1,0-3.21,5,5,0,0,1,.68-1.5,7.12,7.12,0,0,1,1.05-1.2c.76-.71,1.6-1.27,2.35-1.85a10.78,10.78,0,0,0,2-1.81,7.76,7.76,0,0,0,1.18-2,8.19,8.19,0,0,0,.61-3.3c0-.2,0-.38,0-.53s0-.29,0-.39l0-.24v-.08a5.7,5.7,0,0,1,.17,1.24,8,8,0,0,1-.57,3.35,7.79,7.79,0,0,1-1.18,2,10.74,10.74,0,0,1-2,1.85c-.75.59-1.58,1.15-2.33,1.85a7.64,7.64,0,0,0-1,1.17,5,5,0,0,0-.66,1.45,7.08,7.08,0,0,0,0,3.14,20,20,0,0,0,.88,2.84,23,23,0,0,1,.81,2.58,7.5,7.5,0,0,1,.22,2.35,5.87,5.87,0,0,1-.49,1.89,4.42,4.42,0,0,1-.85,1.21,3.64,3.64,0,0,1-.75.55l-.22.1Z"/><path class="cls-8" d="M33.31,134c1.62,1.13,3.41,2.32,5.38,2.18a14.33,14.33,0,0,0,3.35-1,4.09,4.09,0,0,1,3.41.08c.64-.06.94-.93.66-1.51a2.49,2.49,0,0,0-1.54-1.11c-3.54-1.21-7.07.16-11,.42"/><path class="cls-27" d="M47.82,135a2.45,2.45,0,0,0,.13-.63,1.71,1.71,0,0,0-.83-1.44,2.32,2.32,0,0,0-1.14-.34,3.54,3.54,0,0,0-1.37.22c-.93.32-1.82,1-2.9,1.44a7,7,0,0,1-1.62.48,7.24,7.24,0,0,1-1.58.12,7.79,7.79,0,0,1-2.61-.52,6.67,6.67,0,0,1-1.58-.86,4.61,4.61,0,0,1-.38-.3l-.12-.12a9,9,0,0,0,2.12,1.17,7.91,7.91,0,0,0,2.57.47,7.52,7.52,0,0,0,1.55-.12,7.37,7.37,0,0,0,1.59-.47c1.05-.44,1.94-1.12,2.91-1.44a3.58,3.58,0,0,1,1.42-.21,2.5,2.5,0,0,1,1.2.37,1.78,1.78,0,0,1,.68.78,1.66,1.66,0,0,1,.15.77,1.21,1.21,0,0,1-.11.48A.64.64,0,0,1,47.82,135Z"/><circle class="cls-5" cx="33.01" cy="101.71" r="20.94"/><path class="cls-8" d="M39,105.06a6.43,6.43,0,0,0,8.14-6.35c0-1.87-.88-3.77-.3-5.54.4-1.22,1.42-2.17,1.76-3.4.51-1.84-.6-3.71-1.67-5.29a12.26,12.26,0,0,0-2.33-2.83,4.15,4.15,0,0,0-3.41-1"/><path class="cls-8" d="M21.83,80.8c.1,1.41-.83,2.67-1.76,3.72a7.43,7.43,0,0,0-2.19,3.56c-.35,2.47,2.07,4.77,1.57,7.22-.27,1.32-1.34,2.37-1.54,3.7a4.64,4.64,0,0,0,1.36,3.52c.85,1,1.89,1.79,2.65,2.84,0,0,1.57,2.58,6.4.93"/><path class="cls-8" d="M43.47,83c0-1.27-1.15-2.26-2.33-2.73a17.4,17.4,0,0,1-3.57-1.35,17.58,17.58,0,0,1-2.37-2.43A7.86,7.86,0,0,0,22,80.05a5.14,5.14,0,0,0,1.29,5.18c1.66,1.4,4.13,1.09,6.26.65s4.54-.86,6.32.39a9,9,0,0,1,2.35,3.12,5.58,5.58,0,0,0,2.72,2.72c1.24.43,2.92-.31,3-1.62"/><path class="cls-24" d="M38.43,83.22a2.14,2.14,0,0,1,1.91,2.17h0l-1.27,28.85c-.06,3.41-5,5.33-8.69,5.24h0c-3.68-.08-3.8-1.89-3.85-5.13-.07-5.42-.07-7.45-.07-7.42s-4.65-.79-5.61-6.86a64.77,64.77,0,0,1,0-12c.24-3.64,2.66-8.11,6.29-7.71Z"/><path class="cls-8" d="M22,91.73a.78.78,0,0,0,.75.79.74.74,0,0,0,.8-.7.78.78,0,0,0-.75-.79A.74.74,0,0,0,22,91.73Z"/><path class="cls-8" d="M21.88,90.23c.09.1.68-.34,1.52-.33s1.45.42,1.55.32-.06-.23-.33-.42a2.09,2.09,0,0,0-1.23-.39,2.07,2.07,0,0,0-1.21.39C21.92,90,21.83,90.18,21.88,90.23Z"/><path class="cls-8" d="M30.31,92a.78.78,0,0,0,.75.79.75.75,0,0,0,.8-.7.77.77,0,0,0-.75-.79A.73.73,0,0,0,30.31,92Z"/><path class="cls-8" d="M30.12,90.8c.09.1.69-.34,1.52-.33s1.46.42,1.55.32-.06-.23-.32-.43A2.22,2.22,0,0,0,31.63,90a2,2,0,0,0-1.21.39C30.16,90.57,30.07,90.75,30.12,90.8Z"/><path class="cls-8" d="M27.06,97a5.48,5.48,0,0,0-1.36-.25c-.21,0-.42-.07-.45-.21a1.13,1.13,0,0,1,.14-.64L26,94.28A28.43,28.43,0,0,0,27.46,90a28.48,28.48,0,0,0-1.77,4.14l-.61,1.64a1.24,1.24,0,0,0-.11.84.52.52,0,0,0,.35.31,1.2,1.2,0,0,0,.36,0A5.35,5.35,0,0,0,27.06,97Z"/><path class="cls-25" d="M26.46,106.93a15.44,15.44,0,0,0,8.14-2.16s-2.06,4.18-8.14,3.6Z"/><path class="cls-25" d="M27.41,99a1.5,1.5,0,0,1,1.36-.56,1.41,1.41,0,0,1,.95.51.88.88,0,0,1,.06,1,1,1,0,0,1-1.1.28,3.35,3.35,0,0,1-1.07-.64,1.13,1.13,0,0,1-.24-.25.29.29,0,0,1,0-.31"/><path class="cls-8" d="M29.74,89.33c.09.23.92.12,1.91.24s1.77.39,1.91.19-.08-.32-.4-.54a3.28,3.28,0,0,0-1.42-.5,3.19,3.19,0,0,0-1.49.18C29.89,89,29.71,89.22,29.74,89.33Z"/><path class="cls-8" d="M22.19,88.2c.15.19.73,0,1.42,0s1.28.13,1.42-.07,0-.28-.29-.46a2,2,0,0,0-1.15-.32,2.05,2.05,0,0,0-1.14.38C22.21,87.91,22.13,88.1,22.19,88.2Z"/><path class="cls-8" d="M42.68,103.2a5.39,5.39,0,0,1-6.42-6c.19-1.49,1-3,.47-4.42-.68-1.87-3.3-2.45-4-4.31-.41-1.08,0-2.35-.5-3.41a4,4,0,0,0-2.5-1.94,10.72,10.72,0,0,1-3-1.29A2.34,2.34,0,0,1,25.92,79,57.36,57.36,0,0,1,39.2,82.23a5.16,5.16,0,0,1,2.62,1.7,5.28,5.28,0,0,1,.53,3.25q-.37,8.19-.76,16.37"/><path class="cls-27" d="M45.89,83.46a.48.48,0,0,1,.1.25,1,1,0,0,1-.24.73,1.51,1.51,0,0,1-1.08.55,3.44,3.44,0,0,1-1.54-.46A4.41,4.41,0,0,0,41.35,84a9.55,9.55,0,0,0-2.14.19,14,14,0,0,1-2.43.32,3.49,3.49,0,0,1-2.48-.91,7.28,7.28,0,0,1-1.44-2.22A10.68,10.68,0,0,0,31.7,79.3,3.42,3.42,0,0,0,28.2,78a3.58,3.58,0,0,0-2.12,1.57,7.05,7.05,0,0,0-.44.9.7.7,0,0,1,0-.26,3.82,3.82,0,0,1,.3-.71,3.58,3.58,0,0,1,2.16-1.71,3.51,3.51,0,0,1,1.95,0,3.59,3.59,0,0,1,1.84,1.27,11.08,11.08,0,0,1,1.21,2.13,7.26,7.26,0,0,0,1.37,2.13,3.2,3.2,0,0,0,2.27.83,15.18,15.18,0,0,0,2.38-.29,8.89,8.89,0,0,1,2.21-.17,4.48,4.48,0,0,1,1.85.58,3.52,3.52,0,0,0,1.44.49,1.41,1.41,0,0,0,1-.46.87.87,0,0,0,.26-.64C45.92,83.55,45.87,83.47,45.89,83.46Z"/><path class="cls-8" d="M42.48,81.72A4.46,4.46,0,0,1,42.7,73a2.72,2.72,0,0,1,2.67.83c.55.76.52,1.9,1.23,2.51s1.92.38,2.91.59a3.31,3.31,0,0,1,2.37,3.55,4.48,4.48,0,0,1-2.81,3.46,6.94,6.94,0,0,1-4.59.09,16.91,16.91,0,0,1-4.19-2"/><path class="cls-27" d="M49.78,77.33a2.83,2.83,0,0,1-.44,1.11,6.11,6.11,0,0,1-2,2.07,6.31,6.31,0,0,1-2.75.92,2.55,2.55,0,0,1-1.2-.1s.46,0,1.18-.13a6.94,6.94,0,0,0,2.61-1,7,7,0,0,0,2-1.92C49.56,77.73,49.73,77.31,49.78,77.33Z"/><path class="cls-5" d="M46.57,84a12.1,12.1,0,0,0-2.88-2.53,11.79,11.79,0,0,0-3.64-1.21,3.14,3.14,0,0,1,1.16,0,7.8,7.8,0,0,1,2.64.92A7.64,7.64,0,0,1,46,83.05,2.92,2.92,0,0,1,46.57,84Z"/><path class="cls-8" d="M30.3,98.28a3.7,3.7,0,0,1-1.52,1.23,4.06,4.06,0,0,1-1.84.65,13.49,13.49,0,0,1,1.69-.92C29.56,98.74,30.24,98.22,30.3,98.28Z"/><path class="cls-5" d="M46,83.34s.07,0,.22-.08.38-.1.67-.15a7,7,0,0,1,2.53.09,5.31,5.31,0,0,1,1.66.62,1,1,0,0,1,.47.94.77.77,0,0,1-.31.51,1.32,1.32,0,0,1-.53.23,3.75,3.75,0,0,1-1.11,0,9.14,9.14,0,0,1-1.13-.18A8.67,8.67,0,0,1,47.34,85a2.44,2.44,0,0,1-1-.74A1.63,1.63,0,0,1,46.08,83c.06-.41.17-.77.26-1.15a7.57,7.57,0,0,1,.81-2.08,1.37,1.37,0,0,1,.88-.66.87.87,0,0,1,1,.43,1.28,1.28,0,0,1,0,1,5,5,0,0,1-.37.77,5.92,5.92,0,0,1-1.69,1.88,4.72,4.72,0,0,1-.58.36.67.67,0,0,1-.22.09s.28-.18.73-.55a6.1,6.1,0,0,0,1.57-1.89,5,5,0,0,0,.33-.74,1.06,1.06,0,0,0,0-.78.6.6,0,0,0-.68-.28,1.12,1.12,0,0,0-.69.55,7.16,7.16,0,0,0-.75,2c-.16.72-.52,1.55-.07,2.14a3.54,3.54,0,0,0,2,1,8.59,8.59,0,0,0,1.09.19,3.55,3.55,0,0,0,1,0c.31-.06.59-.23.62-.5a.77.77,0,0,0-.35-.69,5.24,5.24,0,0,0-1.56-.62,7.5,7.5,0,0,0-2.46-.18C46.32,83.29,46,83.37,46,83.34Z"/><path class="cls-27" d="M39.75,80s0,.06-.08.18a2.1,2.1,0,0,1-.4.41,2.7,2.7,0,0,1-2,.45,5.1,5.1,0,0,1-2.62-1.57A14.34,14.34,0,0,0,31.93,77a4.74,4.74,0,0,0-3.48-.44A4.56,4.56,0,0,0,26,78.13a5.21,5.21,0,0,0-.93,1.76c-.13.46-.15.73-.18.73a.63.63,0,0,1,0-.2,4.34,4.34,0,0,1,.08-.56A4.72,4.72,0,0,1,25.84,78a4.79,4.79,0,0,1,2.53-1.72,5,5,0,0,1,3.71.45,13.65,13.65,0,0,1,2.76,2.54,4.94,4.94,0,0,0,2.46,1.55,2.57,2.57,0,0,0,1.9-.33A3.2,3.2,0,0,0,39.75,80Z"/><circle class="cls-5" cx="132.47" cy="101.71" r="20.94"/><path class="cls-8" d="M123.58,82.87l-1.06-1a4.35,4.35,0,0,0-2.3,3.52,14.33,14.33,0,0,1-.85,4.22c-.49,1-1.39,1.93-1.28,3s1.12,1.9,1.13,2.95-.9,1.79-1.43,2.68c-1.06,1.79-1.75,9.13-1.19,11.12,4.69-.37,13-.83,17.68-1.83C133,100.06,127.82,89.4,123.58,82.87Z"/><ellipse class="cls-27" cx="121.02" cy="94.27" rx="4.72" ry="5.23"/><path d="M119.7,91.38a6.46,6.46,0,0,1,.47-1c.11,3.27.3,5.94.64,9.16a13.12,13.12,0,0,1-1.3-5.68A5.66,5.66,0,0,1,119.7,91.38Z"/><path class="cls-24" d="M128.81,117.25Z"/><path class="cls-24" d="M120.08,91.15c-.32-5.86,3.67-11.22,9.23-11.92a10.5,10.5,0,0,1,11.62,9.88l1.38,24.73a2.28,2.28,0,0,1-.35,1.35,8.56,8.56,0,0,1-12.16,2.75,2.13,2.13,0,0,1-1-1.81l-.1-5.53s0,0,0,0a6.47,6.47,0,0,1-1.46,0c-1.38-.36-4.88-1.79-6-7.27A119.83,119.83,0,0,1,120.08,91.15Z"/><path class="cls-8" d="M127.72,99.23a6.5,6.5,0,0,0-1.51-.17c-.23,0-.46,0-.51-.2a1.34,1.34,0,0,1,.12-.74c.18-.61.37-1.25.58-1.92a32.31,32.31,0,0,0,1.25-5A34.24,34.24,0,0,0,126,96.09c-.2.67-.38,1.31-.55,1.92a1.44,1.44,0,0,0-.07,1,.6.6,0,0,0,.41.33,1.43,1.43,0,0,0,.4,0A5.65,5.65,0,0,0,127.72,99.23Z"/><path class="cls-8" d="M121.6,92.35c.1.12.71-.4,1.59-.42s1.52.43,1.61.31-.06-.26-.34-.47a2.1,2.1,0,0,0-2.56.09C121.64,92.09,121.55,92.31,121.6,92.35Z"/><path class="cls-8" d="M130.47,92.58c.12.11.75-.47,1.7-.55s1.7.35,1.79.22-.08-.26-.4-.47a2.37,2.37,0,0,0-1.45-.32,2.26,2.26,0,0,0-1.34.58C130.49,92.3,130.41,92.53,130.47,92.58Z"/><path class="cls-25" d="M128.78,110.36a14.87,14.87,0,0,0,7.82-2.89s-1.1,4.7-7.79,4.55Z"/><path class="cls-25" d="M128.25,100.15a1.65,1.65,0,0,1,1.44-.71,1.45,1.45,0,0,1,1.07.48.9.9,0,0,1,.15,1.06,1.15,1.15,0,0,1-1.19.39,3.37,3.37,0,0,1-1.21-.61.84.84,0,0,1-.28-.25.29.29,0,0,1,0-.33"/><path class="cls-8" d="M130.46,98.44c-.15,0-.09,1-.9,1.73s-1.87.72-1.87.86.25.17.7.15a2.47,2.47,0,0,0,1.56-.66,2.14,2.14,0,0,0,.69-1.45C130.65,98.66,130.52,98.43,130.46,98.44Z"/><path class="cls-8" d="M130.32,89c.11.24,1,0,2.1.1s2,.27,2.1,0-.11-.33-.48-.54a3.46,3.46,0,0,0-1.58-.42,3.63,3.63,0,0,0-1.61.31C130.46,88.66,130.28,88.86,130.32,89Z"/><path class="cls-8" d="M121.41,89.17c.19.21.92,0,1.81,0s1.63.15,1.8-.07,0-.31-.36-.5a2.73,2.73,0,0,0-1.47-.34,2.77,2.77,0,0,0-1.44.4C121.44,88.86,121.33,89.07,121.41,89.17Z"/><path class="cls-8" d="M128.5,78.06a3.13,3.13,0,0,1,2.37-1.34c4.06-.61,8.6,1.84,10.88,5.26s2.4,8.53.73,12.29L140,92.68c-5.1-2.1-8.69-7-12-12.07C127.53,79.92,128.08,78.77,128.5,78.06Z"/><path class="cls-8" d="M120.16,90.75l-.27-.53c-1-1.94-.58-4.14.18-6.19a9.39,9.39,0,0,1,2.17-3.73c1.7-1.94,4.64-4.16,7.13-3,.52,1-1.19,2.8-2.06,3.55-1.29,1.1-2.4,1.84-3.25,2.63-1.69,1.59-3.73,4.41-3.9,7.32"/><path class="cls-8" d="M122.37,94.87a.78.78,0,0,0,.74.79.74.74,0,0,0,.8-.68.77.77,0,0,0-.73-.8A.75.75,0,0,0,122.37,94.87Z"/><path class="cls-8" d="M130.64,94.87a.77.77,0,0,0,.73.79.75.75,0,0,0,.81-.68.78.78,0,0,0-.73-.8A.74.74,0,0,0,130.64,94.87Z"/><path class="cls-24" d="M140,92.68c.09-.05,3.85-1.53,4.09,2.42s-3.78,3.37-3.8,3.26S140,92.68,140,92.68Z"/><path class="cls-25" d="M141.36,96.79s.07,0,.19.09a.68.68,0,0,0,.52,0,1.69,1.69,0,0,0,.69-1.58,2.18,2.18,0,0,0-.25-1,.83.83,0,0,0-.55-.5.35.35,0,0,0-.39.22c0,.11,0,.19,0,.2s-.09-.06-.07-.23a.48.48,0,0,1,.14-.26.53.53,0,0,1,.38-.12,1,1,0,0,1,.75.57,2.24,2.24,0,0,1,.31,1.09,1.79,1.79,0,0,1-.9,1.76.77.77,0,0,1-.64-.06C141.37,96.89,141.35,96.8,141.36,96.79Z"/><path class="cls-6" d="M125.89,93.72a5.69,5.69,0,0,0-.13-.89,3.61,3.61,0,0,0-4.69-2.55,3.16,3.16,0,0,0-.91.47,3.42,3.42,0,0,0-.77.75,3.57,3.57,0,0,0-.07,4.23,3.71,3.71,0,0,0,.75.78,3.62,3.62,0,0,0,2.78.69,3.49,3.49,0,0,0,1.52-.64,3.54,3.54,0,0,0,1.36-2,5.26,5.26,0,0,0,.16-.88V94a1.68,1.68,0,0,1,0,.29,3.48,3.48,0,0,1-.07.38,3.65,3.65,0,0,1-1.36,2,3.52,3.52,0,0,1-1.56.68,3.77,3.77,0,0,1-2-.18,3.73,3.73,0,0,1-.93-.52,3.45,3.45,0,0,1-.77-.8,3.69,3.69,0,0,1,.07-4.39,3.44,3.44,0,0,1,.8-.77,3.25,3.25,0,0,1,.94-.49,3.7,3.7,0,0,1,3.49.6,3.6,3.6,0,0,1,1.29,2.06,3.24,3.24,0,0,1,.07.39,1.38,1.38,0,0,1,0,.28v.23Z"/><path class="cls-6" d="M135.86,93.88a6.28,6.28,0,0,0-.12-.89,3.56,3.56,0,0,0-1.3-2,3.52,3.52,0,0,0-1.5-.69,3.62,3.62,0,0,0-1.89.13,3,3,0,0,0-.91.47,3.42,3.42,0,0,0-.77.75,3.6,3.6,0,0,0-.73,2.1,3.57,3.57,0,0,0,.66,2.13,3.66,3.66,0,0,0,.74.78,3.81,3.81,0,0,0,.9.5,3.62,3.62,0,0,0,1.88.19,3.48,3.48,0,0,0,1.53-.64,3.65,3.65,0,0,0,1.36-2,5.77,5.77,0,0,0,.15-.88s0,0,0,.06v.17a1.57,1.57,0,0,1,0,.29,3.74,3.74,0,0,1-.08.38,3.62,3.62,0,0,1-1.35,2,3.51,3.51,0,0,1-1.57.68,3.74,3.74,0,0,1-1.94-.18,3.56,3.56,0,0,1-.93-.52,3.49,3.49,0,0,1-.78-.8,3.69,3.69,0,0,1,.07-4.39A3.77,3.77,0,0,1,131,90.32,3.67,3.67,0,0,1,135.79,93a2,2,0,0,1,.06.38,1.62,1.62,0,0,1,0,.29v.17S135.87,93.88,135.86,93.88Z"/><path class="cls-6" d="M128.74,93.61s-.12-.16-.36-.35a1.78,1.78,0,0,0-2.2,0c-.25.19-.36.35-.38.34a.89.89,0,0,1,.32-.41,1.72,1.72,0,0,1,1.17-.43,1.77,1.77,0,0,1,1.15.47A.88.88,0,0,1,128.74,93.61Z"/><path class="cls-6" d="M140.85,92.43a3.16,3.16,0,0,1-.73.15c-.45.07-1.08.14-1.78.2l-1.79.16a4.41,4.41,0,0,1-.74.06,3.16,3.16,0,0,1,.73-.15c.45-.07,1.09-.14,1.78-.2l1.79-.16A4.41,4.41,0,0,1,140.85,92.43Z"/><path class="cls-6" d="M120.13,96a3.6,3.6,0,0,1-1-2.7.94.94,0,0,0-.08.44,2.91,2.91,0,0,0,.73,2C120,95.87,120.12,96,120.13,96Z"/><path class="cls-6" d="M119.5,91.87s-.16,0-.25.22,0,.34,0,.34.07-.14.14-.28S119.53,91.9,119.5,91.87Z"/><path class="cls-6" d="M129.24,95.17s-.05-.21-.11-.54a3.84,3.84,0,0,1,0-1.31,3.8,3.8,0,0,1,.46-1.22,3.55,3.55,0,0,0,.3-.47,1.41,1.41,0,0,0-.38.42A3.1,3.1,0,0,0,129,93.3a3.14,3.14,0,0,0,0,1.35A1.35,1.35,0,0,0,129.24,95.17Z"/><path class="cls-3" d="M143,98.31s.05.07.13.22a1.33,1.33,0,0,1,.17.65,1.18,1.18,0,0,1-.37.9,1.26,1.26,0,0,1-1.11.36,1.34,1.34,0,0,1-.93-.72,1.22,1.22,0,0,1,0-1,1.36,1.36,0,0,1,.38-.56c.13-.11.21-.15.2-.16s-.09,0-.23.12a1.33,1.33,0,0,0-.44.56,1.3,1.3,0,0,0,0,1.06,1.44,1.44,0,0,0,1,.8,1.39,1.39,0,0,0,1.23-.4,1.33,1.33,0,0,0,.38-1,1.42,1.42,0,0,0-.22-.68C143.05,98.36,143,98.3,143,98.31Z"/><path class="cls-3" d="M121.16,101.35a1.1,1.1,0,0,1-.69.05,1.43,1.43,0,0,1-.63-.39,1.68,1.68,0,0,1-.41-.82,1.46,1.46,0,0,1,.11-.89,1.71,1.71,0,0,1,.46-.6,2.33,2.33,0,0,1,.62-.33s-.07,0-.19,0a1.55,1.55,0,0,0-.49.24,1.66,1.66,0,0,0-.51.61,1.54,1.54,0,0,0-.13,1,1.69,1.69,0,0,0,.45.87,1.4,1.4,0,0,0,.7.4.92.92,0,0,0,.54,0C121.11,101.41,121.16,101.36,121.16,101.35Z"/><path class="cls-8" d="M138.33,79.47c3.67,0,5.23,5.39,6.06,7.37s1.08,4.2,2.14,6.07c.85,1.49,2.21,2.78,2.4,4.48.13,1.23-.39,2.46-.32,3.7a12.14,12.14,0,0,0,1.23,3.64,3.88,3.88,0,0,1-.07,3.69,54.16,54.16,0,0,1-8.45.19,2.27,2.27,0,0,1-1.36-.37,2.43,2.43,0,0,1-.66-1.64c-.78-6.23.94-9,.15-15.22"/><path class="cls-27" d="M137.74,95.41a4.74,4.74,0,1,0,4.72-5.23A5,5,0,0,0,137.74,95.41Z"/><path class="cls-8" d="M139.67,95.41a.82.82,0,0,1,0-.23,3.2,3.2,0,0,1,.08-.65,4.18,4.18,0,0,1,.33-1,3.67,3.67,0,0,1,.83-1.09,3.39,3.39,0,0,1,1.47-.77,3.15,3.15,0,0,1,1.9.18,3.43,3.43,0,0,1,1.59,1.37,4.48,4.48,0,0,1,.46,1,4.21,4.21,0,0,1,0,2.3,4.48,4.48,0,0,1-.46,1A3.51,3.51,0,0,1,144.27,99a3.14,3.14,0,0,1-1.9.17,3.29,3.29,0,0,1-1.47-.77,3.67,3.67,0,0,1-.83-1.09,4.18,4.18,0,0,1-.33-1,3.2,3.2,0,0,1-.08-.65.82.82,0,0,1,0-.23,8.31,8.31,0,0,0,.12.87,4,4,0,0,0,.35,1,3.57,3.57,0,0,0,.82,1.06,3.18,3.18,0,0,0,1.44.73,3,3,0,0,0,1.82-.18,3.37,3.37,0,0,0,1.53-1.33,3.69,3.69,0,0,0,.44-1,3.93,3.93,0,0,0,0-2.22,3.83,3.83,0,0,0-.44-1A3.43,3.43,0,0,0,144.22,92a3,3,0,0,0-1.82-.18,3.33,3.33,0,0,0-1.44.73,3.7,3.7,0,0,0-.82,1.06,3.91,3.91,0,0,0-.35,1A8.38,8.38,0,0,0,139.67,95.41Z"/><path class="cls-27" d="M143.37,90.47s.79-13.75-12.92-14.19c0,0-4.61,0-6.53,2.41a9.47,9.47,0,0,1,6.72-.82c2.9.81,9.47,3.73,9.85,12.79l1.27.44Z"/><path d="M146,97.2a3.25,3.25,0,0,1-3.15,2.45,3.71,3.71,0,0,1-3.32-2.37,3.81,3.81,0,0,1,.55-3.81,4.44,4.44,0,0,0,0,3.66,3.62,3.62,0,0,0,2.85,2,3.4,3.4,0,0,0,3.11-2"/><path class="cls-8" d="M140.24,90.8a2.14,2.14,0,0,1,.54-.3,4.55,4.55,0,0,1,1.44-.34,4.26,4.26,0,0,1,1.48.15,1.84,1.84,0,0,1,.57.22,7.21,7.21,0,0,0-2-.24A7.3,7.3,0,0,0,140.24,90.8Z"/><path class="cls-27" d="M123.24,79.24a.31.31,0,0,0,0-.07l.09-.22a3.46,3.46,0,0,1,.47-.79,5,5,0,0,1,1-1,7.76,7.76,0,0,1,1.68-.9c.33-.13.69-.24,1.06-.36s.76-.21,1.17-.27a11.89,11.89,0,0,1,2.65-.2A13.26,13.26,0,0,1,137.26,77a11.78,11.78,0,0,1,2.55,1.86,12.86,12.86,0,0,1,3.06,4.64,12.86,12.86,0,0,1,.64,2.22,12,12,0,0,1,.18,3.34,7.81,7.81,0,0,1-.11.9l0,.24s0,.08,0,.07a.6.6,0,0,1,0-.08l0-.23a7.06,7.06,0,0,0,.09-.9,12.61,12.61,0,0,0-.23-3.32,12.92,12.92,0,0,0-1.84-4.54A12.85,12.85,0,0,0,139.72,79a11.72,11.72,0,0,0-2.52-1.83,13.19,13.19,0,0,0-5.78-1.56,13,13,0,0,0-2.63.19c-.41.06-.79.17-1.16.26s-.72.22-1,.35a7.74,7.74,0,0,0-1.68.87,5,5,0,0,0-1,1,4,4,0,0,0-.49.76l-.09.21S123.24,79.25,123.24,79.24Z"/><path class="cls-8" d="M122.1,80.37l0-.07.11-.2c.1-.17.24-.41.46-.72a5.59,5.59,0,0,1,.9-1,6.21,6.21,0,0,1,1.51-1,8.24,8.24,0,0,1,2.07-.66,14.31,14.31,0,0,1,2.49-.13,17.86,17.86,0,0,1,2.73.34,12.12,12.12,0,0,1,2.82.89,9.09,9.09,0,0,1,2.46,1.63,10.16,10.16,0,0,1,1.73,2.14,15.16,15.16,0,0,1,1.73,4.31c.31,1.29.47,2.35.58,3.08l.11.85,0,.22v.07a.31.31,0,0,1,0-.07l0-.22-.14-.84c-.13-.73-.3-1.78-.63-3.06a15.19,15.19,0,0,0-1.73-4.28,10.48,10.48,0,0,0-1.72-2.11,9.31,9.31,0,0,0-2.43-1.6,12.19,12.19,0,0,0-2.79-.88,19,19,0,0,0-2.71-.35,15,15,0,0,0-2.46.12,8.08,8.08,0,0,0-2,.64,5.71,5.71,0,0,0-2.41,1.9c-.22.3-.37.54-.48.71l-.12.18A.22.22,0,0,1,122.1,80.37Z"/><circle class="cls-5" cx="133.72" cy="154.26" r="20.94"/><path class="cls-24" d="M125.65,142.86l.2,22.35c0,3.8.9,9.38,7.18,9.06h0c5.42-.68,6.76-5.63,6.72-9.18,0-1.68,0-3.08,0-3.25,0,0,5.94-.59,6.32-6.22.18-2.72.08-8.36-.07-13.46A10.74,10.74,0,0,0,135.57,132l-.57,0C128.85,132,125.44,137,125.65,142.86Z"/><path class="cls-25" d="M140.18,162a14.2,14.2,0,0,1-7.56-2.67s1.65,4.41,7.56,4.18Z"/><path class="cls-8" d="M136,145.24c-.11.12-.8-.41-1.79-.42s-1.71.5-1.81.37.06-.27.38-.51a2.45,2.45,0,0,1,1.45-.44,2.4,2.4,0,0,1,1.43.48C135.94,145,136,145.19,136,145.24Z"/><path class="cls-8" d="M136.14,147.49a.8.8,0,0,1-.81.76.76.76,0,0,1-.78-.76.8.8,0,0,1,.81-.76A.76.76,0,0,1,136.14,147.49Z"/><path class="cls-8" d="M138.6,152a5.93,5.93,0,0,1,1.48-.19c.23,0,.45,0,.5-.2a1.18,1.18,0,0,0-.12-.69c-.19-.57-.38-1.17-.59-1.8a30.76,30.76,0,0,1-1.3-4.69,28.73,28.73,0,0,1,1.67,4.58l.57,1.8a1.36,1.36,0,0,1,.07.92.56.56,0,0,1-.4.31,1.43,1.43,0,0,1-.39,0A5.92,5.92,0,0,1,138.6,152Z"/><path class="cls-8" d="M135.49,141.55c-.09.22-.88.07-1.83.14s-1.71.29-1.83.08.1-.3.41-.5a2.85,2.85,0,0,1,1.38-.42,2.93,2.93,0,0,1,1.41.24C135.36,141.26,135.53,141.44,135.49,141.55Z"/><path class="cls-8" d="M144.88,143.18c-.1.18-.87,0-1.8,0s-1.7.12-1.81-.06.11-.25.43-.4a3.21,3.21,0,0,1,1.37-.26,3.35,3.35,0,0,1,1.38.31C144.77,142.92,144.93,143.09,144.88,143.18Z"/><path class="cls-24" d="M125.9,147.75c-.09-.05-4-1.41-4.06,2.63s4,3.29,4,3.17S125.9,147.75,125.9,147.75Z"/><path class="cls-25" d="M124.63,152s-.07,0-.19.1a.73.73,0,0,1-.53,0,1.76,1.76,0,0,1-.77-1.58,2.26,2.26,0,0,1,.22-1c.13-.3.32-.5.54-.53a.35.35,0,0,1,.41.2c0,.11,0,.19,0,.2s.09-.07.06-.23a.44.44,0,0,0-.15-.26.56.56,0,0,0-.39-.11,1,1,0,0,0-.74.61,2.41,2.41,0,0,0-.27,1.12,1.82,1.82,0,0,0,1,1.76.75.75,0,0,0,.64-.09C124.62,152.09,124.64,152,124.63,152Z"/><path class="cls-8" d="M137.7,154.86c0-.11-.75-.33-1.32-1.06a4.12,4.12,0,0,1-.58-1c-.13-.29-.22-.47-.26-.46s0,.21,0,.53a3,3,0,0,0,.55,1.17,2.47,2.47,0,0,0,1,.77C137.48,154.89,137.69,154.89,137.7,154.86Z"/><path class="cls-8" d="M120.41,141.33a19.53,19.53,0,0,0,1.39-4.73c.43-1.6,1.28-3.26,2.83-3.85h0a4.25,4.25,0,0,1,4.28.32A5.5,5.5,0,0,1,133,128.7a13.64,13.64,0,0,1,7.3.42,15,15,0,0,1,4.84,3.6,19.63,19.63,0,0,1,2.11,2.45l1.89,5.46-1.46,2.91c-.09.2-.18.39-.29.59h0l-1.25,6.1c-.12-1.66-.12-7.42-.24-9.07a9.24,9.24,0,0,1-6.64-2.9c-.93-1-1.67-2.23-2.89-2.8-1.57-.74-3.42-.14-5,.47l.07-.07a7.32,7.32,0,0,0-2.25,1.69,22.93,22.93,0,0,1-.79,9.74c-.14.47-.54,1.45-1,1.63-.9.37-1.16-.54-1.72-1a2.32,2.32,0,0,0-1.65-.37,34.54,34.54,0,0,1-1.2-4.17,3.58,3.58,0,0,1-1.69.15l.5-1.26a2.09,2.09,0,0,1-.72.35.66.66,0,0,1-.69-.29C120,142,120.24,141.64,120.41,141.33Z"/><path class="cls-27" d="M130.8,133.71a6,6,0,0,0-.58.55,4.26,4.26,0,0,0-.86,2,7.69,7.69,0,0,0-.12,1.49c0,.55.07,1.12.12,1.74a14.94,14.94,0,0,1,.08,1.92,5.89,5.89,0,0,1-.11,1,2,2,0,0,1-.39,1,.9.9,0,0,1-.83.3,1.33,1.33,0,0,1-.75-.41,3,3,0,0,1-.6-1.48h.12a4.89,4.89,0,0,1-.69,1.25,1.72,1.72,0,0,1-1.13.64,1.06,1.06,0,0,1-.61-.09,1.08,1.08,0,0,1-.42-.4,1,1,0,0,1-.13-.52.7.7,0,0,1,.18-.46l.06.06a3.89,3.89,0,0,1-1.24,1,3.63,3.63,0,0,1-.39.16l-.14,0s0,0,.13-.06a3.79,3.79,0,0,0,.38-.18,4.11,4.11,0,0,0,1.2-1l.06.06a.75.75,0,0,0,0,.87.81.81,0,0,0,.38.35,1,1,0,0,0,.55.08,1.66,1.66,0,0,0,1-.61,4.9,4.9,0,0,0,.66-1.22l.08-.19,0,.2a2.85,2.85,0,0,0,.57,1.42,1.23,1.23,0,0,0,.67.36.77.77,0,0,0,.7-.25,2,2,0,0,0,.37-.93,7,7,0,0,0,.11-1,14.86,14.86,0,0,0-.08-1.91c0-.61-.1-1.2-.1-1.74a6.61,6.61,0,0,1,.14-1.52,4.1,4.1,0,0,1,.91-2A2.49,2.49,0,0,1,130.8,133.71Z"/><path class="cls-27" d="M149.12,139.06l-.05,0-.14.11a1.81,1.81,0,0,1-.25.16,2.72,2.72,0,0,1-.35.2,5.24,5.24,0,0,1-2.51.51,6.69,6.69,0,0,1-3.58-1.24,11.62,11.62,0,0,1-3.12-3.45c-.44-.71-.81-1.43-1.21-2.1a7.75,7.75,0,0,0-1.35-1.76,4,4,0,0,0-1.71-1,2.81,2.81,0,0,0-.9-.09,3.15,3.15,0,0,0-.82.18,3.53,3.53,0,0,0-1.21.76,3.69,3.69,0,0,0-.64.87,4.09,4.09,0,0,0-.29.89.28.28,0,0,1,0-.06l0-.18a2.71,2.71,0,0,1,.21-.67,3.14,3.14,0,0,1,.64-.9,3.51,3.51,0,0,1,1.23-.81,3.21,3.21,0,0,1,.84-.18,2.69,2.69,0,0,1,.93.08,4,4,0,0,1,1.78,1,8,8,0,0,1,1.38,1.78c.4.68.77,1.4,1.21,2.09a11.37,11.37,0,0,0,3.07,3.42,6.58,6.58,0,0,0,3.51,1.25,5.36,5.36,0,0,0,2.48-.46C148.85,139.26,149.11,139,149.12,139.06Z"/><path class="cls-8" d="M145,145.43c-.11.12-.8-.42-1.79-.42s-1.71.49-1.81.37.06-.28.38-.51a2.45,2.45,0,0,1,1.45-.45,2.4,2.4,0,0,1,1.43.49C144.93,145.15,145,145.37,145,145.43Z"/><path class="cls-8" d="M144.35,147.32a.8.8,0,0,1-.81.77.76.76,0,0,1-.78-.76.8.8,0,0,1,.81-.77A.76.76,0,0,1,144.35,147.32Z"/><path class="cls-8" d="M146.76,134.5a2.51,2.51,0,0,0,2.11,1.16,6.62,6.62,0,0,0,.87-.26c.29.17.23,1.15,0,1.43a5.52,5.52,0,0,1-.62.64,3.29,3.29,0,0,0,2.88-.13,5.06,5.06,0,0,1-3,4.08,1.78,1.78,0,0,1-1.62,0,2.05,2.05,0,0,1-.73-1.26,22.41,22.41,0,0,1-.76-5.4Z"/><line class="cls-30" x1="155.06" y1="125.44" x2="222.06" y2="125.44"/><circle class="cls-30" cx="155.81" cy="125.44" r="1.5"/><circle class="cls-30" cx="221.63" cy="125.44" r="1.5"/><line class="cls-30" x1="425.03" y1="125.44" x2="492.03" y2="125.44"/><circle class="cls-30" cx="425.78" cy="125.44" r="1.5"/><circle class="cls-30" cx="491.6" cy="125.44" r="1.5"/></g><g id="Table"><path class="cls-8" d="M598.9,362.27c0,.12-120,.21-268,.21s-268-.09-268-.21,120-.2,268.05-.2S598.9,362.16,598.9,362.27Z"/></g><g id="Character_2" data-name="Character 2"><polygon class="cls-25" points="341.68 267.89 334.64 265.29 307.71 264.49 301.46 266.19 302.28 281.42 316.41 290.44 330.12 290.17 338.74 282.31 340.65 274.53 341.68 267.89"/><path class="cls-31" d="M261.8,291.22a92.64,92.64,0,0,1,5.63-10.07,23.27,23.27,0,0,1,14.51-10.21l22.6-6.13s1.54,15.24,17.08,15.24,15.86-14.11,15.86-14.11l28.45,10.4c.9.35,7,2.45,14,17.58,6.72,14.41,9.66,21.79,9.66,21.79l-26.84,7.21L361,347.71l.57,13.84-81.76-.18.45-15.82-.37-26.16-1.71,3.23-25.53-10.24A203.47,203.47,0,0,1,261.8,291.22Z"/><path class="cls-8" d="M279.49,305.86c-.12,0,0,8.77.17,19.57s.47,19.56.59,19.56.05-8.76-.16-19.57S279.61,305.86,279.49,305.86Z"/><g class="cls-32"><path d="M359.15,308.42c-1.27-1.4-3.24-1.87-5.09-2.24-21-4.32-42.74-2.5-64.05.17-2.65.33-5.56.89-7.16,3-1.16,1.54-.41,3.59-.52,5.51-.56,9.88.73,20.41,2.68,30.11l72.61-1.17c2.48-7.52,3.09-20.28,3.12-29C360.75,312.59,360.68,310.09,359.15,308.42Z"/></g><path class="cls-8" d="M363.87,297a1.7,1.7,0,0,1,0,.37v1.06c0,.93,0,2.26-.07,3.91-.08,3.31-.26,7.87-.54,12.9s-.6,9.59-.86,12.89c-.14,1.61-.26,2.93-.34,3.9,0,.43-.08.78-.11,1.05a.19.19,0,1,1-.06,0c0-.28,0-.63.05-1.06l.24-3.91c.2-3.33.47-7.87.77-12.88s.49-9.59.63-12.89c.07-1.62.13-2.95.17-3.91l.05-1.06A2,2,0,0,1,363.87,297Z"/><path class="cls-8" d="M292.73,232.9a12.32,12.32,0,0,0-1.78,6.95c0,2.4,1.65,7.26,5.9,7.5-1.13,6.85,3.26,11.91,10.56,11.92s15.65-12.51,22.41-15.26l19.64-5.19c1.72-.4,2.43-2.5,2.4-4.27s-.49-3.61.14-5.27c.86-2.27,3.49-3.48,4.39-5.74,1-2.56-.56-5.41-2.39-7.48s-4-4.05-4.62-6.75c-.53-2.48.42-5.27-.82-7.49-1.52-2.72-5.52-3.06-7.38-5.58-.89-1.21-1.17-2.8-2.06-4-1.51-2.09-4.43-2.63-7-2.35s-5,1.2-7.59,1.39c-3.53.26-7.17-.88-10.55.14-3.74,1.13-6,4.44-8.43,7.65l-3.16,3.72a13.84,13.84,0,0,1-2.11,1.71,25.4,25.4,0,0,0-4,2.57,6.24,6.24,0,0,0,.43,9,6.69,6.69,0,0,0-4.48,6.56s-.35,3.25,1.72,4.7A4.48,4.48,0,0,0,292.73,232.9Z"/><path class="cls-8" d="M305.88,239.55a90.13,90.13,0,0,1-3.95-15.18,31.79,31.79,0,0,1,1.24-15.5c.28-.74,2.63-5.74,3.42-5.66.57.06-.88,4.71-.6,5.2,2.73,4.68,3.47,10.31,3,15.71a70.81,70.81,0,0,1-3.14,15.43"/><path class="cls-25" d="M320.07,278.65c-8.11-.18-14-13.49-14-13.49l-.52-45.59c-.43-13.13,6.85-24.32,20-24.38l1.21.07A23.48,23.48,0,0,1,349,218.07c.31,11.38.5,24,.1,30-.83,12.57-13.52,13.86-13.52,13.86s-.07,2.92-.11,6.62c-.09,8.3-12.1,10.35-15.36,10.07Z"/><path class="cls-26" d="M335.37,262a30.43,30.43,0,0,1-16.13-5.73s3.5,9.37,16.12,8.91Z"/><path class="cls-8" d="M342.39,228.85a1.79,1.79,0,0,1-1.83,1.72,1.72,1.72,0,0,1-1.76-1.72,1.8,1.8,0,0,1,1.83-1.72A1.72,1.72,0,0,1,342.39,228.85Z"/><path class="cls-8" d="M345.82,223.15c-.24.22-1.54-.86-3.48-1s-3.4.79-3.6.54.15-.52.8-.94a5,5,0,0,1,2.89-.72,4.78,4.78,0,0,1,2.76,1.05C345.76,222.61,345.94,223.05,345.82,223.15Z"/><path class="cls-8" d="M325.1,228.39a1.8,1.8,0,0,1-1.83,1.72,1.73,1.73,0,0,1-1.77-1.72,1.8,1.8,0,0,1,1.83-1.72A1.72,1.72,0,0,1,325.1,228.39Z"/><path class="cls-8" d="M326.83,222.91c-.23.22-1.54-.86-3.47-.95s-3.41.79-3.6.54.15-.52.79-.94a5,5,0,0,1,2.9-.72,4.78,4.78,0,0,1,2.75,1C326.77,222.38,327,222.81,326.83,222.91Z"/><path class="cls-8" d="M333,238.14a12.78,12.78,0,0,1,3.17-.39c.49,0,1-.1,1.07-.43a2.66,2.66,0,0,0-.25-1.49L335.71,232c-1.74-5.47-3-9.95-2.76-10s1.82,4.31,3.56,9.77c.41,1.35.81,2.63,1.19,3.86a2.79,2.79,0,0,1,.15,1.95,1.23,1.23,0,0,1-.85.68,3.24,3.24,0,0,1-.84.07A12.43,12.43,0,0,1,333,238.14Z"/><path class="cls-8" d="M327.21,239.18c.32,0,.21,2.09,1.93,3.68s4,1.48,4,1.77c0,.13-.52.38-1.47.36a5.25,5.25,0,0,1-3.31-1.36,4.57,4.57,0,0,1-1.48-3.08C326.81,239.66,327.07,239.16,327.21,239.18Z"/><path class="cls-8" d="M327.15,215.06c-.22.51-2.14.16-4.42.31s-4.15.68-4.43.19c-.12-.24.22-.71,1-1.18a7.38,7.38,0,0,1,3.33-1A7.3,7.3,0,0,1,326,214C326.85,214.38,327.24,214.81,327.15,215.06Z"/><path class="cls-8" d="M345.37,216.67c-.37.42-1.68-.1-3.28-.21s-3,.14-3.26-.34c-.12-.23.11-.66.73-1a4.74,4.74,0,0,1,5.26.44C345.37,216,345.53,216.47,345.37,216.67Z"/><path class="cls-25" d="M305.89,228.94c-.21-.1-8.51-3-8.69,5.6s8.5,7,8.52,6.78S305.89,228.94,305.89,228.94Z"/><path class="cls-26" d="M303.16,238s-.15.1-.41.21a1.47,1.47,0,0,1-1.12,0c-.9-.35-1.64-1.81-1.65-3.37a5.06,5.06,0,0,1,.47-2.14,1.75,1.75,0,0,1,1.15-1.13.78.78,0,0,1,.88.43c.11.25,0,.42.1.43s.18-.14.12-.49a1,1,0,0,0-.32-.55,1.16,1.16,0,0,0-.83-.24,2.11,2.11,0,0,0-1.6,1.3,5.27,5.27,0,0,0-.57,2.39c0,1.74.87,3.39,2.11,3.77a1.65,1.65,0,0,0,1.38-.19C303.14,238.21,303.19,238,303.16,238Z"/><path class="cls-8" d="M343.4,203.72c1.4-.76-2.73-5.33-6.14-6.93-5.15-2.41-13-4-17.84-2.67-5.77,1.56-10.58,4.36-13.54,9.56a33.83,33.83,0,0,0-4,17.26,10.27,10.27,0,0,0,1.14,5.28c1.18,1.92,3.48,3.15,3.34,5.78a3.6,3.6,0,0,0,.86,2.64c1.56,1.7,3.51.15,4.42-1.42,1.93-3.35,2.2-7.38,2.41-11.25a25,25,0,0,0-.44-8.2c-.4-1.44-1.06-2.81-1.38-4.27a5.17,5.17,0,0,1,.66-4.3,5.9,5.9,0,0,1,.71-.7,9,9,0,0,1,8.94-1.58c4.83,1.78,13.09,4.45,15.28,2.83,3.14-2.33,3.9-3.87,3.9-3.87Z"/><path class="cls-8" d="M319.89,193a18.93,18.93,0,0,1,14.55,1,9.83,9.83,0,0,1,5.12,5.79c.69,2.56-.44,5.69-2.91,6.66l-.17.1c-3.69,1.19-6.08.67-9.73-.65-3.07-1.1-5.79-3-8.86-4.14a17.48,17.48,0,0,0-10.25-.42A28.5,28.5,0,0,1,319.89,193Z"/><path class="cls-27" d="M303.5,201.48c.07.06.77-.76,2.17-1.73a12.18,12.18,0,0,1,2.61-1.4,8.07,8.07,0,0,1,3.51-.59,11.83,11.83,0,0,1,6,2.48c1.33,1.06,1.95,1.94,2,1.88s-.09-.26-.38-.66a9.12,9.12,0,0,0-1.39-1.53,11.08,11.08,0,0,0-6.23-2.74,8,8,0,0,0-3.74.67,11,11,0,0,0-2.66,1.56A6.46,6.46,0,0,0,303.5,201.48Z"/><path class="cls-27" d="M329.76,192.17A21.58,21.58,0,0,0,332,193a18.67,18.67,0,0,1,8.85,7.29,23.72,23.72,0,0,0,1.28,2.07,6.62,6.62,0,0,0-.93-2.28,16.2,16.2,0,0,0-3.84-4.57,16,16,0,0,0-5.22-2.89A6.77,6.77,0,0,0,329.76,192.17Z"/><path class="cls-27" d="M294,223.33s.29.12.84.28a6,6,0,0,0,2.36.16,9.49,9.49,0,0,0,3.34-1.11c1.2-.62,2.43-1.47,3.79-2.26a11.3,11.3,0,0,1,4.14-1.57,5.43,5.43,0,0,1,3.54.65,4.23,4.23,0,0,1,1.7,1.78,2.82,2.82,0,0,1,.23.64.71.71,0,0,1,0,.24s-.09-.32-.36-.82a4.25,4.25,0,0,0-1.7-1.64,5.26,5.26,0,0,0-3.4-.57,11.55,11.55,0,0,0-4,1.56c-1.35.78-2.59,1.63-3.81,2.24a9.48,9.48,0,0,1-3.45,1.08,5.75,5.75,0,0,1-2.42-.26,5,5,0,0,1-.61-.27C294.06,223.38,294,223.34,294,223.33Z"/><path class="cls-27" d="M294.54,227.17a9.25,9.25,0,0,0,2.86.17,13.52,13.52,0,0,0,3-.72c1.12-.38,2.32-.91,3.62-1.37a12.67,12.67,0,0,1,3.8-.84,7.05,7.05,0,0,1,3.13.6,4.93,4.93,0,0,1,1.73,1.3,2.61,2.61,0,0,1,.33.49c.07.12.1.18.09.19s-.17-.23-.51-.6a5.05,5.05,0,0,0-1.73-1.18,7.13,7.13,0,0,0-3-.51,12.89,12.89,0,0,0-3.71.84c-1.29.46-2.49,1-3.63,1.35a12.68,12.68,0,0,1-3.1.67,7,7,0,0,1-2.14-.14,3.21,3.21,0,0,1-.56-.17C294.6,227.21,294.53,227.18,294.54,227.17Z"/><path class="cls-27" d="M353.09,219.4a1.58,1.58,0,0,1-.29.75,4.39,4.39,0,0,1-3.18,2.08,1.57,1.57,0,0,1-.8,0,5.84,5.84,0,0,0,4.27-2.8Z"/><path class="cls-27" d="M355.15,223.92a2.71,2.71,0,0,1-.42,1.12,6.1,6.1,0,0,1-2,2.08,6,6,0,0,1-2.73.94,2.73,2.73,0,0,1-1.19-.09c0-.05.45,0,1.16-.13a7,7,0,0,0,2.59-1,6.85,6.85,0,0,0,2-1.94C354.94,224.33,355.1,223.9,355.15,223.92Z"/><path class="cls-25" d="M387.28,316.38l11,22a16.13,16.13,0,0,1,1.66,7.93h0a16,16,0,0,1-16,15.25l-31.42-1.82-1.37-14.34L375,339.63l-9.27-17.51Z"/><path class="cls-26" d="M375,339.63c0,.1,1.08-.08,2.82-.07a21.9,21.9,0,0,1,6.62,1.17,20.11,20.11,0,0,1,5.94,3.15c1.36,1.07,2,1.95,2.08,1.89s-.11-.25-.4-.66a12,12,0,0,0-1.43-1.53,17.86,17.86,0,0,0-6-3.36,18.81,18.81,0,0,0-6.81-1,12.3,12.3,0,0,0-2.07.24C375.26,339.52,375,339.59,375,339.63Z"/><path class="cls-25" d="M253.07,312.6s-5.91,16.49-13.32,34.84a9,9,0,0,0-.35,1.15c-1.12,5,2.66,13.3,7.74,13.3l42.54-.41V347.55l-24.53-5.38,9.47-20.93Z"/><path class="cls-26" d="M246.08,346c.06.08.9-.59,2.38-1.44a22.84,22.84,0,0,1,6.17-2.41,22.58,22.58,0,0,1,6.62-.48c1.7.13,2.74.36,2.76.27a2.38,2.38,0,0,0-.71-.26,12.91,12.91,0,0,0-2-.39,19.68,19.68,0,0,0-6.77.33,19.9,19.9,0,0,0-6.25,2.61,13.74,13.74,0,0,0-1.65,1.23C246.24,345.76,246.05,346,246.08,346Z"/><path class="cls-25" d="M357.25,344.56H351.1s-13.88-5-16.73-4.53c-2.57.43-12,6.68-13.83,7.92a1.11,1.11,0,0,0-.44.56h0a2,2,0,0,0,1.12,2.57l.19.08-.08.28a3.22,3.22,0,0,0-.14,1.12,1.36,1.36,0,0,0,2.52.59l-.36.63a1.55,1.55,0,0,0-.19.84l0,.57a1.55,1.55,0,0,0,1.06,1.39h0a1.56,1.56,0,0,0,1.62-.43c1.19-1.31,3.77-3.94,5.51-4.23a41.78,41.78,0,0,1,5.7-.29,2,2,0,0,1,1.79,1.24h0c-1,.07-8.25,3.83-10.8,5.18a2.71,2.71,0,0,0-1.48,2.05c-.09.8.31,1.64,1.89,1.27a69.34,69.34,0,0,0,9.49-3.6s3.15-.9,5.19.54c2.87,2,4.18,2.77,6.64,1.95a20.81,20.81,0,0,0,4.28-2l4.86-.48S363.52,346.32,357.25,344.56Z"/><path class="cls-26" d="M338.92,346.91s-1-.26-2.6-.37a13.43,13.43,0,0,0-11.22,4.79,24.36,24.36,0,0,0-1.54,2.13,2.67,2.67,0,0,1,.3-.64,11.65,11.65,0,0,1,1.1-1.61,13,13,0,0,1,11.37-4.85,11.27,11.27,0,0,1,1.92.32A2.5,2.5,0,0,1,338.92,346.91Z"/><path class="cls-26" d="M337.45,343.53a11.56,11.56,0,0,0-2.71-.47,11.85,11.85,0,0,0-6.31,1.79,25.4,25.4,0,0,0-5.09,4.3L322,350.63a3.75,3.75,0,0,1-.54.53,4.63,4.63,0,0,1,.46-.59c.31-.37.76-.9,1.33-1.54a23.37,23.37,0,0,1,5.09-4.41,11.56,11.56,0,0,1,6.46-1.74,8.1,8.1,0,0,1,2,.36c.23.07.4.16.52.2Z"/><path class="cls-25" d="M280.67,345h6.16s13.87-5,16.73-4.54c2.57.43,12,6.68,13.82,7.92a1.2,1.2,0,0,1,.45.57h0a2,2,0,0,1-1.12,2.56l-.2.08.09.28a3.51,3.51,0,0,1,.14,1.13,1.36,1.36,0,0,1-2.52.58l.35.63a1.57,1.57,0,0,1,.2.85l0,.57a1.56,1.56,0,0,1-1.07,1.38h0a1.54,1.54,0,0,1-1.61-.42c-1.2-1.32-3.77-3.95-5.52-4.24a41.63,41.63,0,0,0-5.69-.28,1.93,1.93,0,0,0-1.8,1.23h0c1,.08,8.25,3.84,10.8,5.18a2.76,2.76,0,0,1,1.49,2.06c.09.79-.31,1.63-1.89,1.26a70.08,70.08,0,0,1-9.5-3.59s-3.14-.9-5.18.53c-2.87,2-4.19,2.77-6.65,1.95a20.81,20.81,0,0,1-4.28-2l-4.85-.49S274.4,346.75,280.67,345Z"/><path class="cls-26" d="M299,347.34a25.58,25.58,0,0,1,2.61-.36,13.66,13.66,0,0,1,6.18,1,13.88,13.88,0,0,1,5,3.73c1.05,1.25,1.49,2.17,1.54,2.14a3.54,3.54,0,0,0-.31-.64,11.14,11.14,0,0,0-1.09-1.61,13.09,13.09,0,0,0-11.37-4.86,12,12,0,0,0-1.92.33A3.3,3.3,0,0,0,299,347.34Z"/><path class="cls-26" d="M300.47,344a11.5,11.5,0,0,1,2.72-.48,11.87,11.87,0,0,1,6.31,1.79,25.74,25.74,0,0,1,5.09,4.31l1.39,1.48a3.49,3.49,0,0,0,.53.52,3.89,3.89,0,0,0-.45-.59c-.31-.37-.76-.9-1.34-1.54a23.12,23.12,0,0,0-5.09-4.4,11.53,11.53,0,0,0-6.45-1.75,7.61,7.61,0,0,0-2,.37,4.86,4.86,0,0,0-.52.2A.61.61,0,0,0,300.47,344Z"/><path class="cls-3" d="M290.41,361.93H361a3.75,3.75,0,0,0,3.75-3.59l2.12-48.59a3.75,3.75,0,0,0-3.75-3.91h-74.7a3.75,3.75,0,0,0-3.74,3.9l2,48.59A3.75,3.75,0,0,0,290.41,361.93Z"/><path class="cls-8" d="M290.41,361.93h-.17a2.93,2.93,0,0,1-.51-.05,3.62,3.62,0,0,1-1.81-.86,3.85,3.85,0,0,1-1.31-2.93c-.06-1.3-.12-2.79-.2-4.47-.29-6.74-.7-16.47-1.21-28.49q-.19-4.51-.4-9.44c-.07-1.65-.14-3.32-.21-5,0-.43,0-.84,0-1.3a4.24,4.24,0,0,1,.3-1.3,3.9,3.9,0,0,1,1.83-1.95,4,4,0,0,1,1.32-.39c.47,0,.91,0,1.36,0H362.8a4.18,4.18,0,0,1,1.74.27,3.89,3.89,0,0,1,2.34,2.52,4.51,4.51,0,0,1,.15,1.74l-.08,1.69c-.05,1.13-.09,2.25-.14,3.37q-.3,6.71-.58,13.2c-.38,8.65-.75,17-1.1,25,0,1-.09,2-.13,3l-.07,1.46a5,5,0,0,1-.19,1.48,3.88,3.88,0,0,1-3.26,2.73c-.5.05-1,0-1.43,0h-11l-19.7,0L300.87,362l-7.75,0h-2l-.69,0,.69,0,2,0,7.75,0,28.51-.05,19.7,0h11c.46,0,.95,0,1.4,0a3.69,3.69,0,0,0,1.29-.42,3.61,3.61,0,0,0,1.71-2.1,5.26,5.26,0,0,0,.18-1.4l.06-1.47c0-1,.08-2,.13-3,.34-7.95.7-16.3,1.07-25,.19-4.32.38-8.73.58-13.2,0-1.11.1-2.24.14-3.36l.08-1.69a4.22,4.22,0,0,0-.13-1.63,3.61,3.61,0,0,0-2.14-2.31,4.14,4.14,0,0,0-1.62-.24H289.37c-.45,0-.91,0-1.33,0a3.75,3.75,0,0,0-1.22.37,3.59,3.59,0,0,0-1.7,1.8,4,4,0,0,0-.29,1.21c0,.41,0,.85,0,1.27.07,1.71.14,3.38.2,5q.19,4.92.38,9.44c.46,12,.84,21.75,1.1,28.49.07,1.68.12,3.18.17,4.47A3.78,3.78,0,0,0,288,361a3.88,3.88,0,0,0,1.77.88C290.18,361.93,290.42,361.91,290.41,361.93Z"/><path class="cls-6" d="M321.92,334.74a3.87,3.87,0,1,0,3.87-3.87A3.87,3.87,0,0,0,321.92,334.74Z"/></g><g id="Character_1" data-name="Character 1"><path class="cls-1" d="M129.83,218.38a11.61,11.61,0,0,0,2.46-12.53c-2.35-6-8.78-9-14.38-6.83s-8.23,8.81-5.89,14.78a11.59,11.59,0,0,0,10.45,7.5c-14.63,8.53-7.19,25.17-7.19,25.17L152.14,232S146.18,214.57,129.83,218.38Z"/><path class="cls-1" d="M554.48,204.68l-16.71-7.93-17.69,4.72c-2.28.86-4.26,1.32-4.45,3.41l-.94,10.38a40.09,40.09,0,0,0,3.77,21.18,35.5,35.5,0,0,0,14.46,15.68c7.2-1.69,13-7.43,16.67-12.45a40.22,40.22,0,0,0,7.51-20.15l.84-9.34C558.21,207.2,556.81,205.61,554.48,204.68Z"/><path class="cls-3" d="M541.41,220.4a4.81,4.81,0,1,0-6.52,4.21l-.68,7.45,2.61.24.68-7.45A5,5,0,0,0,541.41,220.4Z"/></g><g id="Coffee"><path class="cls-8" d="M261.45,343.5a8.9,8.9,0,0,0-6-1.72c0-1.15,0-1.86,0-1.86H222.91s-1,21.49,15.43,22.25c7.36.34,11.57-3,14-7.12a16.27,16.27,0,0,0,3.69.45,8.47,8.47,0,0,0,5.13-1.45,6.44,6.44,0,0,0,2.45-5.5A6.26,6.26,0,0,0,261.45,343.5Zm-2.23,8c-1.38,1-3.87.88-5.49.59a28.8,28.8,0,0,0,1.58-7.06,6.2,6.2,0,0,1,4.08.94,3.2,3.2,0,0,1,1,2.6A3.39,3.39,0,0,1,259.22,351.48Z"/><path class="cls-2" d="M230.17,354.82a13.17,13.17,0,0,1-2.59-4.3,13.47,13.47,0,0,1-1.2-4.86c.12,0,.53,2.18,1.58,4.71S230.27,354.75,230.17,354.82Z"/><path class="cls-2" d="M232.75,355.16a27,27,0,0,1-1.21-4.52,26.71,26.71,0,0,1-.81-4.61,27.34,27.34,0,0,1,1.21,4.52A26.71,26.71,0,0,1,232.75,355.16Z"/><path class="cls-2" d="M236.66,354.8a17.09,17.09,0,0,1-1-4.43,17.6,17.6,0,0,1-.21-4.53,42,42,0,0,1,.61,4.48C236.41,352.79,236.77,354.78,236.66,354.8Z"/><path class="cls-2" d="M239.87,346.3a13.74,13.74,0,0,1,.21,4.19,13.5,13.5,0,0,1-.7,4.13c-.12,0,.16-1.87.29-4.16S239.75,346.31,239.87,346.3Z"/><path class="cls-2" d="M244.93,345a15.39,15.39,0,0,1-1.86,9.21c-.12-.05.75-2,1.25-4.54S244.81,345,244.93,345Z"/><path class="cls-2" d="M250.27,347a9.52,9.52,0,0,1-1,4,9.75,9.75,0,0,1-2.22,3.45c-.1-.07,1-1.56,1.84-3.61S250.15,347,250.27,347Z"/><path class="cls-8" d="M234.35,305.85a7.61,7.61,0,0,0-.85,1,5.55,5.55,0,0,0-.8,3.38,11,11,0,0,0,1.84,4.88,19.75,19.75,0,0,1,2.85,5.94,6.2,6.2,0,0,1-.21,3.45,10.89,10.89,0,0,1-1.61,2.77,19.23,19.23,0,0,0-3,4.36,4.88,4.88,0,0,0-.16,3.44,4.71,4.71,0,0,0,.64,1.13s-.11-.06-.26-.23a3.31,3.31,0,0,1-.53-.84,4.89,4.89,0,0,1,0-3.61,18.19,18.19,0,0,1,3-4.48,10.5,10.5,0,0,0,1.53-2.68,5.78,5.78,0,0,0,.18-3.23,19.83,19.83,0,0,0-2.77-5.82,11.09,11.09,0,0,1-1.8-5.06,5.55,5.55,0,0,1,1-3.49A2.88,2.88,0,0,1,234.35,305.85Z"/><path class="cls-8" d="M238,308.51a7.91,7.91,0,0,0-.48,1.07,5.34,5.34,0,0,0,.08,3.11,16.16,16.16,0,0,0,2.28,4.13,14.21,14.21,0,0,1,1.39,2.5,11.19,11.19,0,0,1,.73,3,10.74,10.74,0,0,1-1.09,5.8c-.86,1.61-1.92,2.86-2.31,4.15a4,4,0,0,0,.15,3.05,3.43,3.43,0,0,0,.74.88s-.1,0-.27-.14a2.5,2.5,0,0,1-.61-.66,4.05,4.05,0,0,1-.29-3.22c.38-1.36,1.45-2.67,2.25-4.24a10.51,10.51,0,0,0,1-5.58,10.83,10.83,0,0,0-.69-2.88A15.49,15.49,0,0,0,239.6,317a15.3,15.3,0,0,1-2.25-4.25,5.36,5.36,0,0,1,.05-3.25,3.32,3.32,0,0,1,.42-.78C238,308.58,238,308.5,238,308.51Z"/></g></g></svg>