<svg xmlns="http://www.w3.org/2000/svg" width="156.2" height="52.006" viewBox="0 0 156.2 52.006"><defs><style>.a{fill:#fff;}.b{fill:#e77000;}</style></defs><path class="a" d="M102.866,39.638V17.963a6.255,6.255,0,0,0-12.51,0V39.638H80.383V16.088a6.256,6.256,0,0,0-12.223,1.875V39.638H58.186V15.49A14.926,14.926,0,0,1,73.111.565h2.321a14.869,14.869,0,0,1,9.938,3.79A14.871,14.871,0,0,1,95.309.565h2.319A14.925,14.925,0,0,1,112.554,15.49V39.638Zm-65.744,0a14.87,14.87,0,0,1-9.939-3.79,14.869,14.869,0,0,1-9.938,3.79H14.925A14.926,14.926,0,0,1,0,24.712V.565H9.973V22.239A6.256,6.256,0,0,0,22.2,24.114V.565h9.974V22.239a6.255,6.255,0,1,0,12.51,0V.565h9.687V24.712A14.925,14.925,0,0,1,39.443,39.638Zm79.248-20.3C116.371,8.791,125.433,0,136.319,0A19.77,19.77,0,0,1,156.2,19.61a19.916,19.916,0,0,1-39.829-.27Zm9.061.27a10.862,10.862,0,1,0,21.707.135c0-6.424-4.8-11.5-10.888-11.5A11.106,11.106,0,0,0,125.433,19.61Z" transform="translate(0 12.368)"/><path class="b" d="M4.964,0A4.964,4.964,0,1,1,0,4.964,4.964,4.964,0,0,1,4.964,0Z" transform="translate(44.44)"/></svg>